<svg width="59" height="70" viewBox="0 0 59 70" fill="none" xmlns="http://www.w3.org/2000/svg">
<path d="M43.416 20.5078H15.584V16.9326C12.9303 15.6708 11.1895 13.113 11.1895 10.2539C11.1895 6.10764 14.8037 2.73438 19.2461 2.73438C20.2561 2.73438 21.2389 2.91129 22.1629 3.25445C23.9481 1.22979 26.6371 0 29.5 0C32.3629 0 35.0519 1.22979 36.8371 3.25445C37.7611 2.91129 38.7439 2.73438 39.7539 2.73438C44.1963 2.73438 47.8105 6.10764 47.8105 10.2539C47.8105 13.1128 46.0697 15.6708 43.416 16.9326V20.5078Z" fill="black"/>
<path d="M22.9082 45.3379V47.1677C22.9082 50.5656 25.8594 53.3201 29.5 53.3201C33.1406 53.3201 36.0918 50.5656 36.0918 47.1677V45.3379C34.0454 46.0774 31.8228 46.4841 29.5 46.4841C27.1772 46.4841 24.9546 46.0774 22.9082 45.3379Z" fill="black"/>
<path d="M15.584 24.6094V29.3945C15.584 36.5563 21.8267 42.3828 29.5 42.3828C37.1733 42.3828 43.416 36.5563 43.416 29.3945V24.6094H15.584Z" fill="black"/>
<path d="M29.5 57.4219C23.4421 57.4219 18.5137 52.822 18.5137 47.168V46.4844H17.7812C8.47759 46.4844 0.935547 53.5236 0.935547 62.207V67.9492C0.935547 69.0818 1.91934 70 3.13281 70H11.1895V64.9414C11.1895 63.8088 12.1732 62.8906 13.3867 62.8906C14.6002 62.8906 15.584 63.8088 15.584 64.9414V70H31.6973V57.2156C30.9871 57.3506 30.2523 57.4219 29.5 57.4219ZM26.5703 65.625C25.3568 65.625 24.373 64.7068 24.373 63.5742C24.373 62.4416 25.3568 61.5234 26.5703 61.5234C27.7838 61.5234 28.7676 62.4416 28.7676 63.5742C28.7676 64.7068 27.7838 65.625 26.5703 65.625Z" fill="black"/>
<path d="M41.2188 46.4844H40.4863V47.168C40.4863 50.5154 38.7584 53.4929 36.0918 55.3655V70H43.416V64.9414C43.416 63.8088 44.3998 62.8906 45.6133 62.8906C46.8268 62.8906 47.8105 63.8088 47.8105 64.9414V70H55.8672C57.0807 70 58.0645 69.0818 58.0645 67.9492V62.207C58.0645 53.5236 50.5224 46.4844 41.2188 46.4844Z" fill="black"/>
</svg>
