<svg width="39" height="35" viewBox="0 0 39 35" fill="none" xmlns="http://www.w3.org/2000/svg">
<path d="M0 17.5C0 7.83502 8.73045 0 19.5 0C30.2696 0 39 7.83502 39 17.5C39 27.165 30.2696 35 19.5 35C8.73045 35 0 27.165 0 17.5ZM18.2812 2.35496C16.6495 2.8028 15.0263 4.15017 13.6811 6.41372C13.2599 7.12238 12.8773 7.90481 12.5409 8.74999H18.2812V2.35496ZM9.96826 8.74999C10.4031 7.52804 10.9279 6.39797 11.5303 5.38431C11.966 4.65128 12.4523 3.96465 12.9852 3.34327C9.9479 4.47023 7.3522 6.36152 5.4958 8.74999H9.96826ZM8.55185 16.4062C8.62434 14.4882 8.88638 12.6475 9.31126 10.9375H4.07947C3.19148 12.615 2.63337 14.4604 2.48035 16.4062H8.55185ZM11.8142 10.9375C11.3589 12.6109 11.0699 14.4545 10.9908 16.4062H18.2812V10.9375H11.8142ZM20.7187 10.9375V16.4062H28.0092C27.93 14.4545 27.6411 12.6109 27.1858 10.9375H20.7187ZM10.9908 18.5937C11.0699 20.5455 11.3589 22.3891 11.8142 24.0625H18.2812V18.5937H10.9908ZM20.7187 18.5937V24.0625H27.1858C27.6411 22.3891 27.93 20.5455 28.0092 18.5937H20.7187ZM12.5409 26.25C12.8773 27.0952 13.2599 27.8776 13.6811 28.5862C15.0263 30.8498 16.6495 32.1972 18.2812 32.645V26.25H12.5409ZM12.9852 31.6567C12.4523 31.0353 11.966 30.3487 11.5303 29.6157C10.9279 28.602 10.4031 27.4719 9.96826 26.25H5.4958C7.3522 28.6384 9.9479 30.5297 12.9852 31.6567ZM9.31126 24.0625C8.88638 22.3525 8.62434 20.5118 8.55185 18.5937H2.48035C2.63337 20.5395 3.19148 22.3849 4.07947 24.0625H9.31126ZM26.0148 31.6567C29.0521 30.5297 31.6478 28.6384 33.5042 26.25H29.0317C28.5968 27.4719 28.0721 28.602 27.4696 29.6157C27.034 30.3487 26.5477 31.0353 26.0148 31.6567ZM20.7187 26.25V32.645C22.3505 32.1972 23.9737 30.8498 25.3189 28.5862C25.7401 27.8776 26.1227 27.0952 26.4591 26.25H20.7187ZM29.6887 24.0625H34.9205C35.8085 22.3849 36.3666 20.5395 36.5196 18.5937H30.4481C30.3756 20.5118 30.1136 22.3525 29.6887 24.0625ZM36.5196 16.4062C36.3666 14.4604 35.8085 12.615 34.9205 10.9375H29.6887C30.1136 12.6475 30.3756 14.4882 30.4481 16.4062H36.5196ZM27.4696 5.38431C28.0721 6.39797 28.5968 7.52804 29.0317 8.74999H33.5042C31.6478 6.36152 29.0521 4.47023 26.0148 3.34326C26.5477 3.96464 27.034 4.65128 27.4696 5.38431ZM26.4591 8.74999C26.1227 7.90481 25.7401 7.12238 25.3189 6.41372C23.9737 4.15017 22.3505 2.8028 20.7187 2.35496V8.74999H26.4591Z" fill="black"/>
</svg>
