<svg width="1953" height="1167" viewBox="0 0 1953 1167" fill="none" xmlns="http://www.w3.org/2000/svg">
<g filter="url(#filter0_d_1203_519)">
<path d="M1906.28 362.161C1954.28 328.007 1771.05 508.222 1650.05 452C1529.05 395.778 1597.55 216.17 1481.05 130C1364.55 43.83 1178.98 147.665 1116.55 110.5C1054.12 73.335 1058.05 13 1058.05 13" stroke="black" stroke-width="20"/>
</g>
<g filter="url(#filter1_d_1203_519)">
<path d="M572.5 1048.54C567.314 1102.7 574.5 862.535 494.5 814.035C414.5 765.535 358 824.035 286 768.535C214 713.035 254.444 609.72 172.565 563.857C90.6863 517.994 19.4167 580.358 19.4167 580.358" stroke="black" stroke-width="20"/>
</g>
<defs>
<filter id="filter0_d_1203_519" x="1036" y="0.360352" width="916.117" height="500.593" filterUnits="userSpaceOnUse" color-interpolation-filters="sRGB">
<feFlood flood-opacity="0" result="BackgroundImageFix"/>
<feColorMatrix in="SourceAlpha" type="matrix" values="0 0 0 0 0 0 0 0 0 0 0 0 0 0 0 0 0 0 127 0" result="hardAlpha"/>
<feOffset dx="8" dy="8"/>
<feGaussianBlur stdDeviation="10"/>
<feComposite in2="hardAlpha" operator="out"/>
<feColorMatrix type="matrix" values="0 0 0 0 0.298039 0 0 0 0 0.470588 0 0 0 0 0.223529 0 0 0 1 0"/>
<feBlend mode="normal" in2="BackgroundImageFix" result="effect1_dropShadow_1203_519"/>
<feBlend mode="normal" in="SourceGraphic" in2="effect1_dropShadow_1203_519" result="shape"/>
</filter>
<filter id="filter1_d_1203_519" x="0.838867" y="525.021" width="609.615" height="569.425" filterUnits="userSpaceOnUse" color-interpolation-filters="sRGB">
<feFlood flood-opacity="0" result="BackgroundImageFix"/>
<feColorMatrix in="SourceAlpha" type="matrix" values="0 0 0 0 0 0 0 0 0 0 0 0 0 0 0 0 0 0 127 0" result="hardAlpha"/>
<feOffset dx="8" dy="8"/>
<feGaussianBlur stdDeviation="10"/>
<feComposite in2="hardAlpha" operator="out"/>
<feColorMatrix type="matrix" values="0 0 0 0 0.298039 0 0 0 0 0.470588 0 0 0 0 0.223529 0 0 0 1 0"/>
<feBlend mode="normal" in2="BackgroundImageFix" result="effect1_dropShadow_1203_519"/>
<feBlend mode="normal" in="SourceGraphic" in2="effect1_dropShadow_1203_519" result="shape"/>
</filter>
</defs>
</svg>
