<svg width="642" height="37" viewBox="0 0 642 37" fill="none" xmlns="http://www.w3.org/2000/svg">
<mask id="path-1-outside-1_845_672" maskUnits="userSpaceOnUse" x="-1" y="0" width="643" height="37" fill="black">
<rect fill="white" x="-1" width="643" height="37"/>
<path d="M18.688 28.258V11.89H10.768L10.669 15.256C10.603 16.686 10.504 18.039 10.372 19.315C10.262 20.591 10.086 21.757 9.84399 22.813C9.60199 23.847 9.28299 24.727 8.88699 25.453C8.51299 26.179 8.04002 26.696 7.46802 27.004L1.759 26.278C2.551 26.3 3.19999 26.025 3.70599 25.453C4.23399 24.881 4.65202 24.078 4.96002 23.044C5.26802 21.988 5.488 20.756 5.62 19.348C5.774 17.94 5.88401 16.411 5.95001 14.761L6.21402 7.534H23.968V28.258H18.688ZM1 35.419L1.03302 26.278H27.202V35.419H22.252V30.634H5.95001V35.419H1Z"/>
<path d="M32.7808 30.634V7.534H38.0938V30.634H32.7808Z"/>
<path d="M43.7355 28.588L45.3855 24.76C46.3755 25.354 47.4315 25.816 48.5535 26.146C49.6975 26.454 50.8085 26.63 51.8865 26.674C52.9865 26.696 53.9765 26.586 54.8565 26.344C55.7585 26.102 56.4735 25.739 57.0015 25.255C57.5515 24.771 57.8265 24.155 57.8265 23.407C57.8265 22.527 57.4635 21.878 56.7375 21.46C56.0115 21.02 55.0435 20.8 53.8335 20.8H48.1905V16.774H53.4375C54.5155 16.774 55.3515 16.554 55.9455 16.114C56.5615 15.674 56.8695 15.069 56.8695 14.299C56.8695 13.639 56.6495 13.111 56.2095 12.715C55.7695 12.297 55.1645 11.989 54.3945 11.791C53.6465 11.593 52.7995 11.505 51.8535 11.527C50.9075 11.549 49.9285 11.703 48.9165 11.989C47.9045 12.275 46.9365 12.671 46.0125 13.177L44.3955 9.052C45.8915 8.282 47.4645 7.754 49.1145 7.468C50.7865 7.16 52.3925 7.083 53.9325 7.237C55.4945 7.369 56.9025 7.721 58.1565 8.293C59.4105 8.843 60.4115 9.569 61.1595 10.471C61.9075 11.373 62.2815 12.44 62.2815 13.672C62.2815 14.772 61.9955 15.751 61.4235 16.609C60.8515 17.467 60.0485 18.127 59.0145 18.589C58.0025 19.051 56.8365 19.282 55.5165 19.282L55.6485 18.094C57.1885 18.094 58.5195 18.358 59.6415 18.886C60.7855 19.392 61.6655 20.107 62.2815 21.031C62.9195 21.933 63.2385 22.978 63.2385 24.166C63.2385 25.266 62.9415 26.256 62.3475 27.136C61.7755 27.994 60.9835 28.72 59.9715 29.314C58.9595 29.908 57.8045 30.348 56.5065 30.634C55.2085 30.92 53.8225 31.041 52.3485 30.997C50.8965 30.953 49.4335 30.744 47.9595 30.37C46.4855 29.974 45.0775 29.38 43.7355 28.588Z"/>
<path d="M85.2908 7.534H90.6368V30.634H85.2908V7.534ZM74.7968 30.634H69.4508V7.534H74.7968V30.634ZM85.6868 21.163H74.4008V16.642H85.6868V21.163Z"/>
<path d="M95.7974 30.634L106.093 7.534H111.373L121.702 30.634H116.092L107.644 10.24H109.756L101.275 30.634H95.7974ZM100.945 25.684L102.364 21.625H114.244L115.696 25.684H100.945Z"/>
<path d="M126.746 30.634V7.534H132.059V22.582L143.081 7.534H148.097V30.634H142.817V15.619L131.795 30.634H126.746ZM137.405 6.049C135.205 6.049 133.588 5.609 132.554 4.729C131.542 3.849 131.025 2.606 131.003 1H134.666C134.688 1.792 134.919 2.397 135.359 2.815C135.821 3.211 136.503 3.409 137.405 3.409C138.285 3.409 138.956 3.211 139.418 2.815C139.88 2.397 140.122 1.792 140.144 1H143.807C143.785 2.606 143.257 3.849 142.223 4.729C141.189 5.609 139.583 6.049 137.405 6.049Z"/>
<path d="M166.751 31.03C164.969 31.03 163.308 30.744 161.768 30.172C160.25 29.578 158.93 28.742 157.808 27.664C156.686 26.586 155.806 25.321 155.168 23.869C154.552 22.417 154.244 20.822 154.244 19.084C154.244 17.346 154.552 15.751 155.168 14.299C155.806 12.847 156.686 11.582 157.808 10.504C158.952 9.426 160.283 8.601 161.801 8.029C163.319 7.435 164.98 7.138 166.784 7.138C168.786 7.138 170.59 7.49 172.196 8.194C173.824 8.876 175.188 9.888 176.288 11.23L172.856 14.398C172.064 13.496 171.184 12.825 170.216 12.385C169.248 11.923 168.192 11.692 167.048 11.692C165.97 11.692 164.98 11.868 164.078 12.22C163.176 12.572 162.395 13.078 161.735 13.738C161.075 14.398 160.558 15.179 160.184 16.081C159.832 16.983 159.656 17.984 159.656 19.084C159.656 20.184 159.832 21.185 160.184 22.087C160.558 22.989 161.075 23.77 161.735 24.43C162.395 25.09 163.176 25.596 164.078 25.948C164.98 26.3 165.97 26.476 167.048 26.476C168.192 26.476 169.248 26.256 170.216 25.816C171.184 25.354 172.064 24.661 172.856 23.737L176.288 26.905C175.188 28.247 173.824 29.27 172.196 29.974C170.59 30.678 168.775 31.03 166.751 31.03Z"/>
<path d="M194.501 30.634V23.341L195.821 24.496H189.485C187.483 24.496 185.756 24.166 184.304 23.506C182.852 22.846 181.741 21.889 180.971 20.635C180.201 19.381 179.816 17.885 179.816 16.147C179.816 14.343 180.223 12.803 181.037 11.527C181.873 10.229 183.039 9.239 184.535 8.557C186.031 7.875 187.791 7.534 189.815 7.534H199.781V30.634H194.501ZM179.882 30.634L185.624 22.351H191.036L185.525 30.634H179.882ZM194.501 21.625V10.504L195.821 11.89H189.947C188.429 11.89 187.263 12.242 186.449 12.946C185.657 13.65 185.261 14.695 185.261 16.081C185.261 17.423 185.646 18.457 186.416 19.183C187.186 19.909 188.319 20.272 189.815 20.272H195.821L194.501 21.625Z"/>
<path d="M218.874 30.634V7.534H237.519V11.791H224.187V16.543H230.589C233.383 16.543 235.506 17.126 236.958 18.292C238.432 19.458 239.169 21.152 239.169 23.374C239.169 25.662 238.355 27.444 236.727 28.72C235.099 29.996 232.8 30.634 229.83 30.634H218.874ZM224.187 26.674H229.533C230.897 26.674 231.942 26.41 232.668 25.882C233.394 25.332 233.757 24.54 233.757 23.506C233.757 21.482 232.349 20.47 229.533 20.47H224.187V26.674Z"/>
<path d="M245.217 30.634V7.534H250.53V30.634H245.217Z"/>
<path d="M258.321 30.997C257.925 30.997 257.507 30.964 257.067 30.898C256.649 30.832 256.187 30.744 255.681 30.634L256.011 26.113C256.319 26.201 256.638 26.245 256.968 26.245C257.87 26.245 258.574 25.882 259.08 25.156C259.586 24.408 259.949 23.341 260.169 21.955C260.389 20.569 260.532 18.886 260.598 16.906L260.928 7.534H278.682V30.634H273.402V10.669L274.623 11.89H264.426L265.515 10.603L265.317 16.708C265.251 18.974 265.097 20.987 264.855 22.747C264.613 24.507 264.239 26.003 263.733 27.235C263.227 28.467 262.534 29.402 261.654 30.04C260.774 30.678 259.663 30.997 258.321 30.997Z"/>
<path d="M297.618 15.124C300.412 15.124 302.568 15.751 304.086 17.005C305.604 18.237 306.363 20.096 306.363 22.582C306.363 25.222 305.516 27.224 303.822 28.588C302.15 29.952 299.829 30.634 296.859 30.634H286.431V7.534H291.744V15.124H297.618ZM296.562 26.674C297.926 26.674 299.004 26.333 299.796 25.651C300.588 24.969 300.984 23.979 300.984 22.681C300.984 21.405 300.588 20.492 299.796 19.942C299.026 19.37 297.948 19.084 296.562 19.084H291.744V26.674H296.562Z"/>
<path d="M325.988 26.278L324.8 27.499V7.534H330.113V27.499L328.859 26.278H338.627L337.373 27.499V7.534H342.686V30.634H312.194V7.534H317.507V27.499L316.286 26.278H325.988Z"/>
<path d="M355.314 16.84H366.435V20.998H355.314V16.84ZM355.71 26.344H368.283V30.634H350.397V7.534H367.854V11.824H355.71V26.344Z"/>
<path d="M385.907 30.634V7.534H406.961V30.634H401.648V10.669L402.869 11.89H389.999L391.22 10.669V30.634H385.907Z"/>
<path d="M414.667 30.634V7.534H424.666C426.734 7.534 428.516 7.875 430.012 8.557C431.508 9.217 432.663 10.174 433.477 11.428C434.291 12.682 434.698 14.178 434.698 15.916C434.698 17.632 434.291 19.117 433.477 20.371C432.663 21.625 431.508 22.593 430.012 23.275C428.516 23.935 426.734 24.265 424.666 24.265H417.637L420.013 21.856V30.634H414.667ZM420.013 22.45L417.637 19.909H424.369C426.019 19.909 427.251 19.557 428.065 18.853C428.879 18.149 429.286 17.17 429.286 15.916C429.286 14.64 428.879 13.65 428.065 12.946C427.251 12.242 426.019 11.89 424.369 11.89H417.637L420.013 9.349V22.45Z"/>
<path d="M451.582 31.03C449.756 31.03 448.062 30.733 446.5 30.139C444.96 29.545 443.618 28.709 442.474 27.631C441.352 26.553 440.472 25.288 439.834 23.836C439.218 22.384 438.91 20.8 438.91 19.084C438.91 17.368 439.218 15.784 439.834 14.332C440.472 12.88 441.363 11.615 442.507 10.537C443.651 9.459 444.993 8.623 446.533 8.029C448.073 7.435 449.745 7.138 451.549 7.138C453.375 7.138 455.047 7.435 456.565 8.029C458.105 8.623 459.436 9.459 460.558 10.537C461.702 11.615 462.593 12.88 463.231 14.332C463.869 15.762 464.188 17.346 464.188 19.084C464.188 20.8 463.869 22.395 463.231 23.869C462.593 25.321 461.702 26.586 460.558 27.664C459.436 28.72 458.105 29.545 456.565 30.139C455.047 30.733 453.386 31.03 451.582 31.03ZM451.549 26.476C452.583 26.476 453.529 26.3 454.387 25.948C455.267 25.596 456.037 25.09 456.697 24.43C457.357 23.77 457.863 22.989 458.215 22.087C458.589 21.185 458.776 20.184 458.776 19.084C458.776 17.984 458.589 16.983 458.215 16.081C457.863 15.179 457.357 14.398 456.697 13.738C456.059 13.078 455.3 12.572 454.42 12.22C453.54 11.868 452.583 11.692 451.549 11.692C450.515 11.692 449.558 11.868 448.678 12.22C447.82 12.572 447.061 13.078 446.401 13.738C445.741 14.398 445.224 15.179 444.85 16.081C444.498 16.983 444.322 17.984 444.322 19.084C444.322 20.162 444.498 21.163 444.85 22.087C445.224 22.989 445.73 23.77 446.368 24.43C447.028 25.09 447.798 25.596 448.678 25.948C449.558 26.3 450.515 26.476 451.549 26.476Z"/>
<path d="M479.533 28.588L481.183 24.76C482.173 25.354 483.229 25.816 484.351 26.146C485.495 26.454 486.606 26.63 487.684 26.674C488.784 26.696 489.774 26.586 490.654 26.344C491.556 26.102 492.271 25.739 492.799 25.255C493.349 24.771 493.624 24.155 493.624 23.407C493.624 22.527 493.261 21.878 492.535 21.46C491.809 21.02 490.841 20.8 489.631 20.8H483.988V16.774H489.235C490.313 16.774 491.149 16.554 491.743 16.114C492.359 15.674 492.667 15.069 492.667 14.299C492.667 13.639 492.447 13.111 492.007 12.715C491.567 12.297 490.962 11.989 490.192 11.791C489.444 11.593 488.597 11.505 487.651 11.527C486.705 11.549 485.726 11.703 484.714 11.989C483.702 12.275 482.734 12.671 481.81 13.177L480.193 9.052C481.689 8.282 483.262 7.754 484.912 7.468C486.584 7.16 488.19 7.083 489.73 7.237C491.292 7.369 492.7 7.721 493.954 8.293C495.208 8.843 496.209 9.569 496.957 10.471C497.705 11.373 498.079 12.44 498.079 13.672C498.079 14.772 497.793 15.751 497.221 16.609C496.649 17.467 495.846 18.127 494.812 18.589C493.8 19.051 492.634 19.282 491.314 19.282L491.446 18.094C492.986 18.094 494.317 18.358 495.439 18.886C496.583 19.392 497.463 20.107 498.079 21.031C498.717 21.933 499.036 22.978 499.036 24.166C499.036 25.266 498.739 26.256 498.145 27.136C497.573 27.994 496.781 28.72 495.769 29.314C494.757 29.908 493.602 30.348 492.304 30.634C491.006 30.92 489.62 31.041 488.146 30.997C486.694 30.953 485.231 30.744 483.757 30.37C482.283 29.974 480.875 29.38 479.533 28.588Z"/>
<path d="M502.641 30.634L512.937 7.534H518.217L528.546 30.634H522.936L514.488 10.24H516.6L508.119 30.634H502.641ZM507.789 25.684L509.208 21.625H521.088L522.54 25.684H507.789Z"/>
<path d="M548.538 30.634L541.344 19.513L545.667 16.906L554.61 30.634H548.538ZM533.523 30.634V7.534H538.836V30.634H533.523ZM537.285 21.328V16.873H545.337V21.328H537.285ZM546.162 19.678L541.245 19.084L548.736 7.534H554.379L546.162 19.678Z"/>
<path d="M559.906 30.997C559.51 30.997 559.092 30.964 558.652 30.898C558.234 30.832 557.772 30.744 557.266 30.634L557.596 26.113C557.904 26.201 558.223 26.245 558.553 26.245C559.455 26.245 560.159 25.882 560.665 25.156C561.171 24.408 561.534 23.341 561.754 21.955C561.974 20.569 562.117 18.886 562.183 16.906L562.513 7.534H580.267V30.634H574.987V10.669L576.208 11.89H566.011L567.1 10.603L566.902 16.708C566.836 18.974 566.682 20.987 566.44 22.747C566.198 24.507 565.824 26.003 565.318 27.235C564.812 28.467 564.119 29.402 563.239 30.04C562.359 30.678 561.248 30.997 559.906 30.997Z"/>
<path d="M585.409 30.634L595.705 7.534H600.985L611.314 30.634H605.704L597.256 10.24H599.368L590.887 30.634H585.409ZM590.557 25.684L591.976 21.625H603.856L605.308 25.684H590.557Z"/>
<path d="M631.798 28.258V11.89H623.878L623.779 15.256C623.713 16.686 623.614 18.039 623.482 19.315C623.372 20.591 623.196 21.757 622.954 22.813C622.712 23.847 622.393 24.727 621.997 25.453C621.623 26.179 621.15 26.696 620.578 27.004L614.869 26.278C615.661 26.3 616.31 26.025 616.816 25.453C617.344 24.881 617.762 24.078 618.07 23.044C618.378 21.988 618.598 20.756 618.73 19.348C618.884 17.94 618.994 16.411 619.06 14.761L619.324 7.534H637.078V28.258H631.798ZM614.11 35.419L614.143 26.278H640.312V35.419H635.362V30.634H619.06V35.419H614.11Z"/>
</mask>
<path d="M18.688 28.258V11.89H10.768L10.669 15.256C10.603 16.686 10.504 18.039 10.372 19.315C10.262 20.591 10.086 21.757 9.84399 22.813C9.60199 23.847 9.28299 24.727 8.88699 25.453C8.51299 26.179 8.04002 26.696 7.46802 27.004L1.759 26.278C2.551 26.3 3.19999 26.025 3.70599 25.453C4.23399 24.881 4.65202 24.078 4.96002 23.044C5.26802 21.988 5.488 20.756 5.62 19.348C5.774 17.94 5.88401 16.411 5.95001 14.761L6.21402 7.534H23.968V28.258H18.688ZM1 35.419L1.03302 26.278H27.202V35.419H22.252V30.634H5.95001V35.419H1Z" fill="black"/>
<path d="M32.7808 30.634V7.534H38.0938V30.634H32.7808Z" fill="black"/>
<path d="M43.7355 28.588L45.3855 24.76C46.3755 25.354 47.4315 25.816 48.5535 26.146C49.6975 26.454 50.8085 26.63 51.8865 26.674C52.9865 26.696 53.9765 26.586 54.8565 26.344C55.7585 26.102 56.4735 25.739 57.0015 25.255C57.5515 24.771 57.8265 24.155 57.8265 23.407C57.8265 22.527 57.4635 21.878 56.7375 21.46C56.0115 21.02 55.0435 20.8 53.8335 20.8H48.1905V16.774H53.4375C54.5155 16.774 55.3515 16.554 55.9455 16.114C56.5615 15.674 56.8695 15.069 56.8695 14.299C56.8695 13.639 56.6495 13.111 56.2095 12.715C55.7695 12.297 55.1645 11.989 54.3945 11.791C53.6465 11.593 52.7995 11.505 51.8535 11.527C50.9075 11.549 49.9285 11.703 48.9165 11.989C47.9045 12.275 46.9365 12.671 46.0125 13.177L44.3955 9.052C45.8915 8.282 47.4645 7.754 49.1145 7.468C50.7865 7.16 52.3925 7.083 53.9325 7.237C55.4945 7.369 56.9025 7.721 58.1565 8.293C59.4105 8.843 60.4115 9.569 61.1595 10.471C61.9075 11.373 62.2815 12.44 62.2815 13.672C62.2815 14.772 61.9955 15.751 61.4235 16.609C60.8515 17.467 60.0485 18.127 59.0145 18.589C58.0025 19.051 56.8365 19.282 55.5165 19.282L55.6485 18.094C57.1885 18.094 58.5195 18.358 59.6415 18.886C60.7855 19.392 61.6655 20.107 62.2815 21.031C62.9195 21.933 63.2385 22.978 63.2385 24.166C63.2385 25.266 62.9415 26.256 62.3475 27.136C61.7755 27.994 60.9835 28.72 59.9715 29.314C58.9595 29.908 57.8045 30.348 56.5065 30.634C55.2085 30.92 53.8225 31.041 52.3485 30.997C50.8965 30.953 49.4335 30.744 47.9595 30.37C46.4855 29.974 45.0775 29.38 43.7355 28.588Z" fill="black"/>
<path d="M85.2908 7.534H90.6368V30.634H85.2908V7.534ZM74.7968 30.634H69.4508V7.534H74.7968V30.634ZM85.6868 21.163H74.4008V16.642H85.6868V21.163Z" fill="black"/>
<path d="M95.7974 30.634L106.093 7.534H111.373L121.702 30.634H116.092L107.644 10.24H109.756L101.275 30.634H95.7974ZM100.945 25.684L102.364 21.625H114.244L115.696 25.684H100.945Z" fill="black"/>
<path d="M126.746 30.634V7.534H132.059V22.582L143.081 7.534H148.097V30.634H142.817V15.619L131.795 30.634H126.746ZM137.405 6.049C135.205 6.049 133.588 5.609 132.554 4.729C131.542 3.849 131.025 2.606 131.003 1H134.666C134.688 1.792 134.919 2.397 135.359 2.815C135.821 3.211 136.503 3.409 137.405 3.409C138.285 3.409 138.956 3.211 139.418 2.815C139.88 2.397 140.122 1.792 140.144 1H143.807C143.785 2.606 143.257 3.849 142.223 4.729C141.189 5.609 139.583 6.049 137.405 6.049Z" fill="black"/>
<path d="M166.751 31.03C164.969 31.03 163.308 30.744 161.768 30.172C160.25 29.578 158.93 28.742 157.808 27.664C156.686 26.586 155.806 25.321 155.168 23.869C154.552 22.417 154.244 20.822 154.244 19.084C154.244 17.346 154.552 15.751 155.168 14.299C155.806 12.847 156.686 11.582 157.808 10.504C158.952 9.426 160.283 8.601 161.801 8.029C163.319 7.435 164.98 7.138 166.784 7.138C168.786 7.138 170.59 7.49 172.196 8.194C173.824 8.876 175.188 9.888 176.288 11.23L172.856 14.398C172.064 13.496 171.184 12.825 170.216 12.385C169.248 11.923 168.192 11.692 167.048 11.692C165.97 11.692 164.98 11.868 164.078 12.22C163.176 12.572 162.395 13.078 161.735 13.738C161.075 14.398 160.558 15.179 160.184 16.081C159.832 16.983 159.656 17.984 159.656 19.084C159.656 20.184 159.832 21.185 160.184 22.087C160.558 22.989 161.075 23.77 161.735 24.43C162.395 25.09 163.176 25.596 164.078 25.948C164.98 26.3 165.97 26.476 167.048 26.476C168.192 26.476 169.248 26.256 170.216 25.816C171.184 25.354 172.064 24.661 172.856 23.737L176.288 26.905C175.188 28.247 173.824 29.27 172.196 29.974C170.59 30.678 168.775 31.03 166.751 31.03Z" fill="black"/>
<path d="M194.501 30.634V23.341L195.821 24.496H189.485C187.483 24.496 185.756 24.166 184.304 23.506C182.852 22.846 181.741 21.889 180.971 20.635C180.201 19.381 179.816 17.885 179.816 16.147C179.816 14.343 180.223 12.803 181.037 11.527C181.873 10.229 183.039 9.239 184.535 8.557C186.031 7.875 187.791 7.534 189.815 7.534H199.781V30.634H194.501ZM179.882 30.634L185.624 22.351H191.036L185.525 30.634H179.882ZM194.501 21.625V10.504L195.821 11.89H189.947C188.429 11.89 187.263 12.242 186.449 12.946C185.657 13.65 185.261 14.695 185.261 16.081C185.261 17.423 185.646 18.457 186.416 19.183C187.186 19.909 188.319 20.272 189.815 20.272H195.821L194.501 21.625Z" fill="black"/>
<path d="M218.874 30.634V7.534H237.519V11.791H224.187V16.543H230.589C233.383 16.543 235.506 17.126 236.958 18.292C238.432 19.458 239.169 21.152 239.169 23.374C239.169 25.662 238.355 27.444 236.727 28.72C235.099 29.996 232.8 30.634 229.83 30.634H218.874ZM224.187 26.674H229.533C230.897 26.674 231.942 26.41 232.668 25.882C233.394 25.332 233.757 24.54 233.757 23.506C233.757 21.482 232.349 20.47 229.533 20.47H224.187V26.674Z" fill="black"/>
<path d="M245.217 30.634V7.534H250.53V30.634H245.217Z" fill="black"/>
<path d="M258.321 30.997C257.925 30.997 257.507 30.964 257.067 30.898C256.649 30.832 256.187 30.744 255.681 30.634L256.011 26.113C256.319 26.201 256.638 26.245 256.968 26.245C257.87 26.245 258.574 25.882 259.08 25.156C259.586 24.408 259.949 23.341 260.169 21.955C260.389 20.569 260.532 18.886 260.598 16.906L260.928 7.534H278.682V30.634H273.402V10.669L274.623 11.89H264.426L265.515 10.603L265.317 16.708C265.251 18.974 265.097 20.987 264.855 22.747C264.613 24.507 264.239 26.003 263.733 27.235C263.227 28.467 262.534 29.402 261.654 30.04C260.774 30.678 259.663 30.997 258.321 30.997Z" fill="black"/>
<path d="M297.618 15.124C300.412 15.124 302.568 15.751 304.086 17.005C305.604 18.237 306.363 20.096 306.363 22.582C306.363 25.222 305.516 27.224 303.822 28.588C302.15 29.952 299.829 30.634 296.859 30.634H286.431V7.534H291.744V15.124H297.618ZM296.562 26.674C297.926 26.674 299.004 26.333 299.796 25.651C300.588 24.969 300.984 23.979 300.984 22.681C300.984 21.405 300.588 20.492 299.796 19.942C299.026 19.37 297.948 19.084 296.562 19.084H291.744V26.674H296.562Z" fill="black"/>
<path d="M325.988 26.278L324.8 27.499V7.534H330.113V27.499L328.859 26.278H338.627L337.373 27.499V7.534H342.686V30.634H312.194V7.534H317.507V27.499L316.286 26.278H325.988Z" fill="black"/>
<path d="M355.314 16.84H366.435V20.998H355.314V16.84ZM355.71 26.344H368.283V30.634H350.397V7.534H367.854V11.824H355.71V26.344Z" fill="black"/>
<path d="M385.907 30.634V7.534H406.961V30.634H401.648V10.669L402.869 11.89H389.999L391.22 10.669V30.634H385.907Z" fill="black"/>
<path d="M414.667 30.634V7.534H424.666C426.734 7.534 428.516 7.875 430.012 8.557C431.508 9.217 432.663 10.174 433.477 11.428C434.291 12.682 434.698 14.178 434.698 15.916C434.698 17.632 434.291 19.117 433.477 20.371C432.663 21.625 431.508 22.593 430.012 23.275C428.516 23.935 426.734 24.265 424.666 24.265H417.637L420.013 21.856V30.634H414.667ZM420.013 22.45L417.637 19.909H424.369C426.019 19.909 427.251 19.557 428.065 18.853C428.879 18.149 429.286 17.17 429.286 15.916C429.286 14.64 428.879 13.65 428.065 12.946C427.251 12.242 426.019 11.89 424.369 11.89H417.637L420.013 9.349V22.45Z" fill="black"/>
<path d="M451.582 31.03C449.756 31.03 448.062 30.733 446.5 30.139C444.96 29.545 443.618 28.709 442.474 27.631C441.352 26.553 440.472 25.288 439.834 23.836C439.218 22.384 438.91 20.8 438.91 19.084C438.91 17.368 439.218 15.784 439.834 14.332C440.472 12.88 441.363 11.615 442.507 10.537C443.651 9.459 444.993 8.623 446.533 8.029C448.073 7.435 449.745 7.138 451.549 7.138C453.375 7.138 455.047 7.435 456.565 8.029C458.105 8.623 459.436 9.459 460.558 10.537C461.702 11.615 462.593 12.88 463.231 14.332C463.869 15.762 464.188 17.346 464.188 19.084C464.188 20.8 463.869 22.395 463.231 23.869C462.593 25.321 461.702 26.586 460.558 27.664C459.436 28.72 458.105 29.545 456.565 30.139C455.047 30.733 453.386 31.03 451.582 31.03ZM451.549 26.476C452.583 26.476 453.529 26.3 454.387 25.948C455.267 25.596 456.037 25.09 456.697 24.43C457.357 23.77 457.863 22.989 458.215 22.087C458.589 21.185 458.776 20.184 458.776 19.084C458.776 17.984 458.589 16.983 458.215 16.081C457.863 15.179 457.357 14.398 456.697 13.738C456.059 13.078 455.3 12.572 454.42 12.22C453.54 11.868 452.583 11.692 451.549 11.692C450.515 11.692 449.558 11.868 448.678 12.22C447.82 12.572 447.061 13.078 446.401 13.738C445.741 14.398 445.224 15.179 444.85 16.081C444.498 16.983 444.322 17.984 444.322 19.084C444.322 20.162 444.498 21.163 444.85 22.087C445.224 22.989 445.73 23.77 446.368 24.43C447.028 25.09 447.798 25.596 448.678 25.948C449.558 26.3 450.515 26.476 451.549 26.476Z" fill="black"/>
<path d="M479.533 28.588L481.183 24.76C482.173 25.354 483.229 25.816 484.351 26.146C485.495 26.454 486.606 26.63 487.684 26.674C488.784 26.696 489.774 26.586 490.654 26.344C491.556 26.102 492.271 25.739 492.799 25.255C493.349 24.771 493.624 24.155 493.624 23.407C493.624 22.527 493.261 21.878 492.535 21.46C491.809 21.02 490.841 20.8 489.631 20.8H483.988V16.774H489.235C490.313 16.774 491.149 16.554 491.743 16.114C492.359 15.674 492.667 15.069 492.667 14.299C492.667 13.639 492.447 13.111 492.007 12.715C491.567 12.297 490.962 11.989 490.192 11.791C489.444 11.593 488.597 11.505 487.651 11.527C486.705 11.549 485.726 11.703 484.714 11.989C483.702 12.275 482.734 12.671 481.81 13.177L480.193 9.052C481.689 8.282 483.262 7.754 484.912 7.468C486.584 7.16 488.19 7.083 489.73 7.237C491.292 7.369 492.7 7.721 493.954 8.293C495.208 8.843 496.209 9.569 496.957 10.471C497.705 11.373 498.079 12.44 498.079 13.672C498.079 14.772 497.793 15.751 497.221 16.609C496.649 17.467 495.846 18.127 494.812 18.589C493.8 19.051 492.634 19.282 491.314 19.282L491.446 18.094C492.986 18.094 494.317 18.358 495.439 18.886C496.583 19.392 497.463 20.107 498.079 21.031C498.717 21.933 499.036 22.978 499.036 24.166C499.036 25.266 498.739 26.256 498.145 27.136C497.573 27.994 496.781 28.72 495.769 29.314C494.757 29.908 493.602 30.348 492.304 30.634C491.006 30.92 489.62 31.041 488.146 30.997C486.694 30.953 485.231 30.744 483.757 30.37C482.283 29.974 480.875 29.38 479.533 28.588Z" fill="black"/>
<path d="M502.641 30.634L512.937 7.534H518.217L528.546 30.634H522.936L514.488 10.24H516.6L508.119 30.634H502.641ZM507.789 25.684L509.208 21.625H521.088L522.54 25.684H507.789Z" fill="black"/>
<path d="M548.538 30.634L541.344 19.513L545.667 16.906L554.61 30.634H548.538ZM533.523 30.634V7.534H538.836V30.634H533.523ZM537.285 21.328V16.873H545.337V21.328H537.285ZM546.162 19.678L541.245 19.084L548.736 7.534H554.379L546.162 19.678Z" fill="black"/>
<path d="M559.906 30.997C559.51 30.997 559.092 30.964 558.652 30.898C558.234 30.832 557.772 30.744 557.266 30.634L557.596 26.113C557.904 26.201 558.223 26.245 558.553 26.245C559.455 26.245 560.159 25.882 560.665 25.156C561.171 24.408 561.534 23.341 561.754 21.955C561.974 20.569 562.117 18.886 562.183 16.906L562.513 7.534H580.267V30.634H574.987V10.669L576.208 11.89H566.011L567.1 10.603L566.902 16.708C566.836 18.974 566.682 20.987 566.44 22.747C566.198 24.507 565.824 26.003 565.318 27.235C564.812 28.467 564.119 29.402 563.239 30.04C562.359 30.678 561.248 30.997 559.906 30.997Z" fill="black"/>
<path d="M585.409 30.634L595.705 7.534H600.985L611.314 30.634H605.704L597.256 10.24H599.368L590.887 30.634H585.409ZM590.557 25.684L591.976 21.625H603.856L605.308 25.684H590.557Z" fill="black"/>
<path d="M631.798 28.258V11.89H623.878L623.779 15.256C623.713 16.686 623.614 18.039 623.482 19.315C623.372 20.591 623.196 21.757 622.954 22.813C622.712 23.847 622.393 24.727 621.997 25.453C621.623 26.179 621.15 26.696 620.578 27.004L614.869 26.278C615.661 26.3 616.31 26.025 616.816 25.453C617.344 24.881 617.762 24.078 618.07 23.044C618.378 21.988 618.598 20.756 618.73 19.348C618.884 17.94 618.994 16.411 619.06 14.761L619.324 7.534H637.078V28.258H631.798ZM614.11 35.419L614.143 26.278H640.312V35.419H635.362V30.634H619.06V35.419H614.11Z" fill="black"/>
<path d="M18.688 28.258V11.89H10.768L10.669 15.256C10.603 16.686 10.504 18.039 10.372 19.315C10.262 20.591 10.086 21.757 9.84399 22.813C9.60199 23.847 9.28299 24.727 8.88699 25.453C8.51299 26.179 8.04002 26.696 7.46802 27.004L1.759 26.278C2.551 26.3 3.19999 26.025 3.70599 25.453C4.23399 24.881 4.65202 24.078 4.96002 23.044C5.26802 21.988 5.488 20.756 5.62 19.348C5.774 17.94 5.88401 16.411 5.95001 14.761L6.21402 7.534H23.968V28.258H18.688ZM1 35.419L1.03302 26.278H27.202V35.419H22.252V30.634H5.95001V35.419H1Z" stroke="black" stroke-width="2" mask="url(#path-1-outside-1_845_672)"/>
<path d="M32.7808 30.634V7.534H38.0938V30.634H32.7808Z" stroke="black" stroke-width="2" mask="url(#path-1-outside-1_845_672)"/>
<path d="M43.7355 28.588L45.3855 24.76C46.3755 25.354 47.4315 25.816 48.5535 26.146C49.6975 26.454 50.8085 26.63 51.8865 26.674C52.9865 26.696 53.9765 26.586 54.8565 26.344C55.7585 26.102 56.4735 25.739 57.0015 25.255C57.5515 24.771 57.8265 24.155 57.8265 23.407C57.8265 22.527 57.4635 21.878 56.7375 21.46C56.0115 21.02 55.0435 20.8 53.8335 20.8H48.1905V16.774H53.4375C54.5155 16.774 55.3515 16.554 55.9455 16.114C56.5615 15.674 56.8695 15.069 56.8695 14.299C56.8695 13.639 56.6495 13.111 56.2095 12.715C55.7695 12.297 55.1645 11.989 54.3945 11.791C53.6465 11.593 52.7995 11.505 51.8535 11.527C50.9075 11.549 49.9285 11.703 48.9165 11.989C47.9045 12.275 46.9365 12.671 46.0125 13.177L44.3955 9.052C45.8915 8.282 47.4645 7.754 49.1145 7.468C50.7865 7.16 52.3925 7.083 53.9325 7.237C55.4945 7.369 56.9025 7.721 58.1565 8.293C59.4105 8.843 60.4115 9.569 61.1595 10.471C61.9075 11.373 62.2815 12.44 62.2815 13.672C62.2815 14.772 61.9955 15.751 61.4235 16.609C60.8515 17.467 60.0485 18.127 59.0145 18.589C58.0025 19.051 56.8365 19.282 55.5165 19.282L55.6485 18.094C57.1885 18.094 58.5195 18.358 59.6415 18.886C60.7855 19.392 61.6655 20.107 62.2815 21.031C62.9195 21.933 63.2385 22.978 63.2385 24.166C63.2385 25.266 62.9415 26.256 62.3475 27.136C61.7755 27.994 60.9835 28.72 59.9715 29.314C58.9595 29.908 57.8045 30.348 56.5065 30.634C55.2085 30.92 53.8225 31.041 52.3485 30.997C50.8965 30.953 49.4335 30.744 47.9595 30.37C46.4855 29.974 45.0775 29.38 43.7355 28.588Z" stroke="black" stroke-width="2" mask="url(#path-1-outside-1_845_672)"/>
<path d="M85.2908 7.534H90.6368V30.634H85.2908V7.534ZM74.7968 30.634H69.4508V7.534H74.7968V30.634ZM85.6868 21.163H74.4008V16.642H85.6868V21.163Z" stroke="black" stroke-width="2" mask="url(#path-1-outside-1_845_672)"/>
<path d="M95.7974 30.634L106.093 7.534H111.373L121.702 30.634H116.092L107.644 10.24H109.756L101.275 30.634H95.7974ZM100.945 25.684L102.364 21.625H114.244L115.696 25.684H100.945Z" stroke="black" stroke-width="2" mask="url(#path-1-outside-1_845_672)"/>
<path d="M126.746 30.634V7.534H132.059V22.582L143.081 7.534H148.097V30.634H142.817V15.619L131.795 30.634H126.746ZM137.405 6.049C135.205 6.049 133.588 5.609 132.554 4.729C131.542 3.849 131.025 2.606 131.003 1H134.666C134.688 1.792 134.919 2.397 135.359 2.815C135.821 3.211 136.503 3.409 137.405 3.409C138.285 3.409 138.956 3.211 139.418 2.815C139.88 2.397 140.122 1.792 140.144 1H143.807C143.785 2.606 143.257 3.849 142.223 4.729C141.189 5.609 139.583 6.049 137.405 6.049Z" stroke="black" stroke-width="2" mask="url(#path-1-outside-1_845_672)"/>
<path d="M166.751 31.03C164.969 31.03 163.308 30.744 161.768 30.172C160.25 29.578 158.93 28.742 157.808 27.664C156.686 26.586 155.806 25.321 155.168 23.869C154.552 22.417 154.244 20.822 154.244 19.084C154.244 17.346 154.552 15.751 155.168 14.299C155.806 12.847 156.686 11.582 157.808 10.504C158.952 9.426 160.283 8.601 161.801 8.029C163.319 7.435 164.98 7.138 166.784 7.138C168.786 7.138 170.59 7.49 172.196 8.194C173.824 8.876 175.188 9.888 176.288 11.23L172.856 14.398C172.064 13.496 171.184 12.825 170.216 12.385C169.248 11.923 168.192 11.692 167.048 11.692C165.97 11.692 164.98 11.868 164.078 12.22C163.176 12.572 162.395 13.078 161.735 13.738C161.075 14.398 160.558 15.179 160.184 16.081C159.832 16.983 159.656 17.984 159.656 19.084C159.656 20.184 159.832 21.185 160.184 22.087C160.558 22.989 161.075 23.77 161.735 24.43C162.395 25.09 163.176 25.596 164.078 25.948C164.98 26.3 165.97 26.476 167.048 26.476C168.192 26.476 169.248 26.256 170.216 25.816C171.184 25.354 172.064 24.661 172.856 23.737L176.288 26.905C175.188 28.247 173.824 29.27 172.196 29.974C170.59 30.678 168.775 31.03 166.751 31.03Z" stroke="black" stroke-width="2" mask="url(#path-1-outside-1_845_672)"/>
<path d="M194.501 30.634V23.341L195.821 24.496H189.485C187.483 24.496 185.756 24.166 184.304 23.506C182.852 22.846 181.741 21.889 180.971 20.635C180.201 19.381 179.816 17.885 179.816 16.147C179.816 14.343 180.223 12.803 181.037 11.527C181.873 10.229 183.039 9.239 184.535 8.557C186.031 7.875 187.791 7.534 189.815 7.534H199.781V30.634H194.501ZM179.882 30.634L185.624 22.351H191.036L185.525 30.634H179.882ZM194.501 21.625V10.504L195.821 11.89H189.947C188.429 11.89 187.263 12.242 186.449 12.946C185.657 13.65 185.261 14.695 185.261 16.081C185.261 17.423 185.646 18.457 186.416 19.183C187.186 19.909 188.319 20.272 189.815 20.272H195.821L194.501 21.625Z" stroke="black" stroke-width="2" mask="url(#path-1-outside-1_845_672)"/>
<path d="M218.874 30.634V7.534H237.519V11.791H224.187V16.543H230.589C233.383 16.543 235.506 17.126 236.958 18.292C238.432 19.458 239.169 21.152 239.169 23.374C239.169 25.662 238.355 27.444 236.727 28.72C235.099 29.996 232.8 30.634 229.83 30.634H218.874ZM224.187 26.674H229.533C230.897 26.674 231.942 26.41 232.668 25.882C233.394 25.332 233.757 24.54 233.757 23.506C233.757 21.482 232.349 20.47 229.533 20.47H224.187V26.674Z" stroke="black" stroke-width="2" mask="url(#path-1-outside-1_845_672)"/>
<path d="M245.217 30.634V7.534H250.53V30.634H245.217Z" stroke="black" stroke-width="2" mask="url(#path-1-outside-1_845_672)"/>
<path d="M258.321 30.997C257.925 30.997 257.507 30.964 257.067 30.898C256.649 30.832 256.187 30.744 255.681 30.634L256.011 26.113C256.319 26.201 256.638 26.245 256.968 26.245C257.87 26.245 258.574 25.882 259.08 25.156C259.586 24.408 259.949 23.341 260.169 21.955C260.389 20.569 260.532 18.886 260.598 16.906L260.928 7.534H278.682V30.634H273.402V10.669L274.623 11.89H264.426L265.515 10.603L265.317 16.708C265.251 18.974 265.097 20.987 264.855 22.747C264.613 24.507 264.239 26.003 263.733 27.235C263.227 28.467 262.534 29.402 261.654 30.04C260.774 30.678 259.663 30.997 258.321 30.997Z" stroke="black" stroke-width="2" mask="url(#path-1-outside-1_845_672)"/>
<path d="M297.618 15.124C300.412 15.124 302.568 15.751 304.086 17.005C305.604 18.237 306.363 20.096 306.363 22.582C306.363 25.222 305.516 27.224 303.822 28.588C302.15 29.952 299.829 30.634 296.859 30.634H286.431V7.534H291.744V15.124H297.618ZM296.562 26.674C297.926 26.674 299.004 26.333 299.796 25.651C300.588 24.969 300.984 23.979 300.984 22.681C300.984 21.405 300.588 20.492 299.796 19.942C299.026 19.37 297.948 19.084 296.562 19.084H291.744V26.674H296.562Z" stroke="black" stroke-width="2" mask="url(#path-1-outside-1_845_672)"/>
<path d="M325.988 26.278L324.8 27.499V7.534H330.113V27.499L328.859 26.278H338.627L337.373 27.499V7.534H342.686V30.634H312.194V7.534H317.507V27.499L316.286 26.278H325.988Z" stroke="black" stroke-width="2" mask="url(#path-1-outside-1_845_672)"/>
<path d="M355.314 16.84H366.435V20.998H355.314V16.84ZM355.71 26.344H368.283V30.634H350.397V7.534H367.854V11.824H355.71V26.344Z" stroke="black" stroke-width="2" mask="url(#path-1-outside-1_845_672)"/>
<path d="M385.907 30.634V7.534H406.961V30.634H401.648V10.669L402.869 11.89H389.999L391.22 10.669V30.634H385.907Z" stroke="black" stroke-width="2" mask="url(#path-1-outside-1_845_672)"/>
<path d="M414.667 30.634V7.534H424.666C426.734 7.534 428.516 7.875 430.012 8.557C431.508 9.217 432.663 10.174 433.477 11.428C434.291 12.682 434.698 14.178 434.698 15.916C434.698 17.632 434.291 19.117 433.477 20.371C432.663 21.625 431.508 22.593 430.012 23.275C428.516 23.935 426.734 24.265 424.666 24.265H417.637L420.013 21.856V30.634H414.667ZM420.013 22.45L417.637 19.909H424.369C426.019 19.909 427.251 19.557 428.065 18.853C428.879 18.149 429.286 17.17 429.286 15.916C429.286 14.64 428.879 13.65 428.065 12.946C427.251 12.242 426.019 11.89 424.369 11.89H417.637L420.013 9.349V22.45Z" stroke="black" stroke-width="2" mask="url(#path-1-outside-1_845_672)"/>
<path d="M451.582 31.03C449.756 31.03 448.062 30.733 446.5 30.139C444.96 29.545 443.618 28.709 442.474 27.631C441.352 26.553 440.472 25.288 439.834 23.836C439.218 22.384 438.91 20.8 438.91 19.084C438.91 17.368 439.218 15.784 439.834 14.332C440.472 12.88 441.363 11.615 442.507 10.537C443.651 9.459 444.993 8.623 446.533 8.029C448.073 7.435 449.745 7.138 451.549 7.138C453.375 7.138 455.047 7.435 456.565 8.029C458.105 8.623 459.436 9.459 460.558 10.537C461.702 11.615 462.593 12.88 463.231 14.332C463.869 15.762 464.188 17.346 464.188 19.084C464.188 20.8 463.869 22.395 463.231 23.869C462.593 25.321 461.702 26.586 460.558 27.664C459.436 28.72 458.105 29.545 456.565 30.139C455.047 30.733 453.386 31.03 451.582 31.03ZM451.549 26.476C452.583 26.476 453.529 26.3 454.387 25.948C455.267 25.596 456.037 25.09 456.697 24.43C457.357 23.77 457.863 22.989 458.215 22.087C458.589 21.185 458.776 20.184 458.776 19.084C458.776 17.984 458.589 16.983 458.215 16.081C457.863 15.179 457.357 14.398 456.697 13.738C456.059 13.078 455.3 12.572 454.42 12.22C453.54 11.868 452.583 11.692 451.549 11.692C450.515 11.692 449.558 11.868 448.678 12.22C447.82 12.572 447.061 13.078 446.401 13.738C445.741 14.398 445.224 15.179 444.85 16.081C444.498 16.983 444.322 17.984 444.322 19.084C444.322 20.162 444.498 21.163 444.85 22.087C445.224 22.989 445.73 23.77 446.368 24.43C447.028 25.09 447.798 25.596 448.678 25.948C449.558 26.3 450.515 26.476 451.549 26.476Z" stroke="black" stroke-width="2" mask="url(#path-1-outside-1_845_672)"/>
<path d="M479.533 28.588L481.183 24.76C482.173 25.354 483.229 25.816 484.351 26.146C485.495 26.454 486.606 26.63 487.684 26.674C488.784 26.696 489.774 26.586 490.654 26.344C491.556 26.102 492.271 25.739 492.799 25.255C493.349 24.771 493.624 24.155 493.624 23.407C493.624 22.527 493.261 21.878 492.535 21.46C491.809 21.02 490.841 20.8 489.631 20.8H483.988V16.774H489.235C490.313 16.774 491.149 16.554 491.743 16.114C492.359 15.674 492.667 15.069 492.667 14.299C492.667 13.639 492.447 13.111 492.007 12.715C491.567 12.297 490.962 11.989 490.192 11.791C489.444 11.593 488.597 11.505 487.651 11.527C486.705 11.549 485.726 11.703 484.714 11.989C483.702 12.275 482.734 12.671 481.81 13.177L480.193 9.052C481.689 8.282 483.262 7.754 484.912 7.468C486.584 7.16 488.19 7.083 489.73 7.237C491.292 7.369 492.7 7.721 493.954 8.293C495.208 8.843 496.209 9.569 496.957 10.471C497.705 11.373 498.079 12.44 498.079 13.672C498.079 14.772 497.793 15.751 497.221 16.609C496.649 17.467 495.846 18.127 494.812 18.589C493.8 19.051 492.634 19.282 491.314 19.282L491.446 18.094C492.986 18.094 494.317 18.358 495.439 18.886C496.583 19.392 497.463 20.107 498.079 21.031C498.717 21.933 499.036 22.978 499.036 24.166C499.036 25.266 498.739 26.256 498.145 27.136C497.573 27.994 496.781 28.72 495.769 29.314C494.757 29.908 493.602 30.348 492.304 30.634C491.006 30.92 489.62 31.041 488.146 30.997C486.694 30.953 485.231 30.744 483.757 30.37C482.283 29.974 480.875 29.38 479.533 28.588Z" stroke="black" stroke-width="2" mask="url(#path-1-outside-1_845_672)"/>
<path d="M502.641 30.634L512.937 7.534H518.217L528.546 30.634H522.936L514.488 10.24H516.6L508.119 30.634H502.641ZM507.789 25.684L509.208 21.625H521.088L522.54 25.684H507.789Z" stroke="black" stroke-width="2" mask="url(#path-1-outside-1_845_672)"/>
<path d="M548.538 30.634L541.344 19.513L545.667 16.906L554.61 30.634H548.538ZM533.523 30.634V7.534H538.836V30.634H533.523ZM537.285 21.328V16.873H545.337V21.328H537.285ZM546.162 19.678L541.245 19.084L548.736 7.534H554.379L546.162 19.678Z" stroke="black" stroke-width="2" mask="url(#path-1-outside-1_845_672)"/>
<path d="M559.906 30.997C559.51 30.997 559.092 30.964 558.652 30.898C558.234 30.832 557.772 30.744 557.266 30.634L557.596 26.113C557.904 26.201 558.223 26.245 558.553 26.245C559.455 26.245 560.159 25.882 560.665 25.156C561.171 24.408 561.534 23.341 561.754 21.955C561.974 20.569 562.117 18.886 562.183 16.906L562.513 7.534H580.267V30.634H574.987V10.669L576.208 11.89H566.011L567.1 10.603L566.902 16.708C566.836 18.974 566.682 20.987 566.44 22.747C566.198 24.507 565.824 26.003 565.318 27.235C564.812 28.467 564.119 29.402 563.239 30.04C562.359 30.678 561.248 30.997 559.906 30.997Z" stroke="black" stroke-width="2" mask="url(#path-1-outside-1_845_672)"/>
<path d="M585.409 30.634L595.705 7.534H600.985L611.314 30.634H605.704L597.256 10.24H599.368L590.887 30.634H585.409ZM590.557 25.684L591.976 21.625H603.856L605.308 25.684H590.557Z" stroke="black" stroke-width="2" mask="url(#path-1-outside-1_845_672)"/>
<path d="M631.798 28.258V11.89H623.878L623.779 15.256C623.713 16.686 623.614 18.039 623.482 19.315C623.372 20.591 623.196 21.757 622.954 22.813C622.712 23.847 622.393 24.727 621.997 25.453C621.623 26.179 621.15 26.696 620.578 27.004L614.869 26.278C615.661 26.3 616.31 26.025 616.816 25.453C617.344 24.881 617.762 24.078 618.07 23.044C618.378 21.988 618.598 20.756 618.73 19.348C618.884 17.94 618.994 16.411 619.06 14.761L619.324 7.534H637.078V28.258H631.798ZM614.11 35.419L614.143 26.278H640.312V35.419H635.362V30.634H619.06V35.419H614.11Z" stroke="black" stroke-width="2" mask="url(#path-1-outside-1_845_672)"/>
</svg>
