<svg width="43" height="44" viewBox="0 0 43 44" fill="none" xmlns="http://www.w3.org/2000/svg">
<path d="M43 22C43 22 34.9375 6.875 21.5 6.875C8.0625 6.875 0 22 0 22C0 22 8.0625 37.125 21.5 37.125C34.9375 37.125 43 22 43 22ZM3.15244 22C4.44991 19.9776 5.94466 18.0952 7.61369 16.3817C11.0725 12.837 15.8025 9.625 21.5 9.625C27.1975 9.625 31.9248 12.837 35.389 16.3817C37.058 18.0952 38.5528 19.9776 39.8503 22C39.6962 22.2383 39.5215 22.5023 39.3262 22.792C38.4259 24.112 37.0956 25.872 35.389 27.6182C31.9248 31.163 27.1948 34.375 21.5 34.375C15.8052 34.375 11.0752 31.163 7.611 27.6182C5.94197 25.9048 4.44991 24.0224 3.15244 22Z" fill="#575757"/>
<path d="M21.5 15.125C19.7181 15.125 18.0091 15.8493 16.7491 17.1386C15.4891 18.428 14.7812 20.1766 14.7812 22C14.7812 23.8234 15.4891 25.572 16.7491 26.8614C18.0091 28.1507 19.7181 28.875 21.5 28.875C23.2819 28.875 24.9909 28.1507 26.2509 26.8614C27.5109 25.572 28.2188 23.8234 28.2188 22C28.2188 20.1766 27.5109 18.428 26.2509 17.1386C24.9909 15.8493 23.2819 15.125 21.5 15.125ZM12.0938 22C12.0938 19.4473 13.0848 16.9991 14.8488 15.1941C16.6128 13.3891 19.0053 12.375 21.5 12.375C23.9947 12.375 26.3872 13.3891 28.1512 15.1941C29.9152 16.9991 30.9062 19.4473 30.9062 22C30.9062 24.5527 29.9152 27.0009 28.1512 28.8059C26.3872 30.6109 23.9947 31.625 21.5 31.625C19.0053 31.625 16.6128 30.6109 14.8488 28.8059C13.0848 27.0009 12.0938 24.5527 12.0938 22Z" fill="#575757"/>
</svg>
