<svg width="18" height="16" viewBox="0 0 18 16" fill="none" xmlns="http://www.w3.org/2000/svg">
<path d="M8.97938 2.74805L8.23825 2.01133C6.49662 0.280067 3.30694 0.877695 2.15526 3.05284C1.61362 4.07583 1.49183 5.55246 2.47988 7.43758C3.43146 9.25313 5.40963 11.4265 8.97939 13.7946C12.5491 11.4265 14.5273 9.25313 15.4789 7.43758C16.4669 5.55246 16.3451 4.07583 15.8035 3.05284C14.6518 0.877695 11.4622 0.280067 9.72052 2.01133L8.97938 2.74805ZM8.97938 15C-6.87528 4.86841 4.09755 -3.04087 8.79773 1.14308C8.85938 1.19797 8.91996 1.25493 8.97938 1.314C9.03881 1.25494 9.09938 1.19797 9.16103 1.14309C13.8612 -3.04088 24.8341 4.8684 8.97938 15Z" fill="white"/>
</svg>
