<svg width="1257" height="982" viewBox="0 0 1257 982" fill="none" xmlns="http://www.w3.org/2000/svg">
<g filter="url(#filter0_d_833_668)">
<path d="M-26 964.245C-26 964.245 25.0351 962.379 75.8231 921.258C126.611 880.137 98.7538 791.95 175.491 747.818C252.227 703.685 306.798 766.678 372.211 713.764C437.624 660.85 416.279 629.927 405.924 555.105C395.57 480.283 476.267 455.134 501.266 450.875C526.264 446.617 563.385 454.577 618.141 398.778C672.897 342.979 617.27 290.628 644.971 250.691C672.673 210.754 732.476 217.546 751.484 224.678C770.492 231.81 823.829 276.138 902.838 288.25C981.847 300.363 1030.19 205.4 1142.28 218.99C1254.36 232.58 1276.39 310.024 1276.39 310.024" stroke="black" stroke-width="20"/>
</g>
<defs>
<filter id="filter0_d_833_668" x="-38.1528" y="196.122" width="1352.66" height="805.648" filterUnits="userSpaceOnUse" color-interpolation-filters="sRGB">
<feFlood flood-opacity="0" result="BackgroundImageFix"/>
<feColorMatrix in="SourceAlpha" type="matrix" values="0 0 0 0 0 0 0 0 0 0 0 0 0 0 0 0 0 0 127 0" result="hardAlpha"/>
<feOffset dx="8" dy="8"/>
<feGaussianBlur stdDeviation="10"/>
<feComposite in2="hardAlpha" operator="out"/>
<feColorMatrix type="matrix" values="0 0 0 0 0.298039 0 0 0 0 0.470588 0 0 0 0 0.223529 0 0 0 1 0"/>
<feBlend mode="normal" in2="BackgroundImageFix" result="effect1_dropShadow_833_668"/>
<feBlend mode="normal" in="SourceGraphic" in2="effect1_dropShadow_833_668" result="shape"/>
</filter>
</defs>
</svg>
