<svg width="1512" height="1208" viewBox="0 0 1512 1208" fill="none" xmlns="http://www.w3.org/2000/svg">
<g filter="url(#filter0_d_667_465)">
<path d="M-50.0002 13.501C-50.0002 13.501 -26.0862 234.669 59.4998 318.501C145.086 402.333 191.5 337.389 270 381C348.5 424.611 307.703 529.119 373.5 627.5C439.297 725.88 503 815.501 669 794.501C835 773.501 950 599 1086 681.5C1184.09 741 1108.5 878.5 1182.5 919C1256.5 959.5 1328 882.82 1382 932.5C1436 982.18 1340.5 1086.5 1427 1150C1513.5 1213.5 1565.5 1098.5 1565.5 1098.5" stroke="black" stroke-width="20"/>
</g>
<defs>
<filter id="filter0_d_667_465" x="-71.9417" y="0.424805" width="1674.55" height="1206.7" filterUnits="userSpaceOnUse" color-interpolation-filters="sRGB">
<feFlood flood-opacity="0" result="BackgroundImageFix"/>
<feColorMatrix in="SourceAlpha" type="matrix" values="0 0 0 0 0 0 0 0 0 0 0 0 0 0 0 0 0 0 127 0" result="hardAlpha"/>
<feOffset dx="8" dy="8"/>
<feGaussianBlur stdDeviation="10"/>
<feComposite in2="hardAlpha" operator="out"/>
<feColorMatrix type="matrix" values="0 0 0 0 0.298039 0 0 0 0 0.470588 0 0 0 0 0.223529 0 0 0 1 0"/>
<feBlend mode="normal" in2="BackgroundImageFix" result="effect1_dropShadow_667_465"/>
<feBlend mode="normal" in="SourceGraphic" in2="effect1_dropShadow_667_465" result="shape"/>
</filter>
</defs>
</svg>
