<svg width="48" height="52" viewBox="0 0 48 52" fill="none" xmlns="http://www.w3.org/2000/svg">
<path d="M12.8005 49.8814C12.6616 50.4229 5.62571 48.9791 2.12513 48.1895L2.03834 43.3675C2.00941 43.0856 1.9689 42.3524 2.03834 41.6756C2.12513 40.8297 2.3855 39.3069 2.3855 39.1377C2.3855 38.9685 2.73267 37.0228 2.3855 35.6693C2.03834 34.3157 2.81946 34.6541 2.90625 34.2312C2.99304 33.8082 3.16662 33.3852 3.16662 33.0468C3.16662 32.7084 3.07983 32.0316 3.16662 31.8625C3.23606 31.7271 3.54272 31.0729 3.68737 30.7627V29.1554L4.03454 27.4635C4.29491 26.6457 4.81566 24.9425 4.81566 24.6718V23.149C4.81566 22.8107 5.24961 20.6958 5.3364 20.5266C5.40584 20.3912 5.88608 18.8346 6.11753 18.0733L6.46469 16.6351L7.76656 4.70708L8.63447 4.96087L9.3288 5.46844H10.1099C10.2256 5.29925 10.4744 4.91011 10.5439 4.70708C10.6133 4.50405 11.0936 3.88932 11.325 3.60733L12.2797 2.76137L13.8419 2H15.2306L16.6193 2.25379L17.8343 2H18.6155L19.1362 4.36869L22.3475 6.65279L22.6079 7.83714L27.0342 5.89142V4.53789L28.4229 3.86112L28.8568 4.96087L31.9813 8.00633H35.3662L41.268 10.2904V11.644L42.0491 13.5897L41.0076 15.2816V17.3119H41.7887L42.4831 17.7349V20.5266L45 24.1642L43.8717 24.7564H42.6566V25.0948L43.0906 26.4483L43.351 30.2551L42.4831 32.5392C42.1937 32.934 41.511 33.7236 41.0944 33.7236C40.5736 33.7236 40.5157 34.2312 40.4001 34.2312C40.3075 34.2312 40.3615 34.8515 40.4001 35.1617L40.834 36.5152C40.6026 36.7126 40.0876 37.1413 39.8793 37.2766C39.6189 37.4458 39.185 37.6996 38.8378 38.1226C38.4907 38.5456 36.8416 38.5456 36.5812 38.7147C36.373 38.8501 35.3951 38.9967 34.9322 39.0531C33.6303 39.1659 30.9919 39.3746 30.853 39.3069C30.6794 39.2223 29.7247 39.1377 29.2908 38.8839C28.8568 38.6302 27.6418 38.7147 27.555 38.7147C27.4855 38.7147 26.716 38.8275 26.3399 38.8839H23.9965L24.4305 38.1226L24.6908 36.8536V35.5001L24.2569 33.9774H23.3022L22.2607 31.8625L21.3928 32.5392L20.0041 33.0468L19.7438 34.2312H18.9626C18.7312 34.1748 18.2509 34.045 18.1815 33.9774C18.0947 33.8928 17.4004 33.0468 17.2268 33.0468H16.1853L15.2306 31.8625L14.6231 34.6541L13.7552 36.0077V37.4458L12.8005 38.7147V40.7451C12.8583 43.5649 12.9393 49.34 12.8005 49.8814Z" fill="black" stroke="black" stroke-width="3"/>
</svg>
