<svg width="1257" height="786" viewBox="0 0 1257 786" fill="none" xmlns="http://www.w3.org/2000/svg">
<g filter="url(#filter0_d_658_838)">
<path d="M-26 768.245C-26 768.245 25.0351 766.379 75.8231 725.258C126.611 684.137 98.7538 595.95 175.491 551.818C252.227 507.685 306.798 570.678 372.211 517.764C437.624 464.85 416.279 433.927 405.924 359.105C395.57 284.283 476.267 259.134 501.266 254.875C526.264 250.617 563.385 258.577 618.141 202.778C672.897 146.979 617.27 94.6278 644.971 54.691C672.673 14.7543 732.476 21.5462 751.484 28.6778C770.492 35.8095 823.829 80.1375 902.838 92.2502C981.847 104.363 1030.19 9.39969 1142.28 22.9896C1254.36 36.5796 1276.39 114.024 1276.39 114.024" stroke="black" stroke-width="20"/>
</g>
<defs>
<filter id="filter0_d_658_838" x="-38.1528" y="0.121582" width="1352.66" height="805.648" filterUnits="userSpaceOnUse" color-interpolation-filters="sRGB">
<feFlood flood-opacity="0" result="BackgroundImageFix"/>
<feColorMatrix in="SourceAlpha" type="matrix" values="0 0 0 0 0 0 0 0 0 0 0 0 0 0 0 0 0 0 127 0" result="hardAlpha"/>
<feOffset dx="8" dy="8"/>
<feGaussianBlur stdDeviation="10"/>
<feComposite in2="hardAlpha" operator="out"/>
<feColorMatrix type="matrix" values="0 0 0 0 0.298039 0 0 0 0 0.470588 0 0 0 0 0.223529 0 0 0 1 0"/>
<feBlend mode="normal" in2="BackgroundImageFix" result="effect1_dropShadow_658_838"/>
<feBlend mode="normal" in="SourceGraphic" in2="effect1_dropShadow_658_838" result="shape"/>
</filter>
</defs>
</svg>
