<svg width="1512" height="1777" viewBox="0 0 1512 1777" fill="none" xmlns="http://www.w3.org/2000/svg">
<g filter="url(#filter0_d_658_837)">
<path d="M464.125 625.06C462.706 576.335 520.19 774.358 432.602 846.006C345.015 917.653 259.382 818.656 154.529 876.117C49.6747 933.579 99.9585 1067.15 31.9581 1122.83C-36.0423 1178.52 -109 1176 -109 1176" stroke="black" stroke-width="20"/>
</g>
<g filter="url(#filter1_d_658_837)">
<path d="M1725.46 306.795C1774.37 280.137 1607.13 432.597 1480.51 395.304C1353.88 358.011 1402.78 233.26 1280.12 173.829C1157.45 114.399 1051.67 227.054 953.302 198.132C854.934 169.21 813 105.662 813 105.662" stroke="black" stroke-width="20"/>
</g>
<defs>
<filter id="filter0_d_658_837" x="-121.337" y="595.437" width="640.677" height="618.582" filterUnits="userSpaceOnUse" color-interpolation-filters="sRGB">
<feFlood flood-opacity="0" result="BackgroundImageFix"/>
<feColorMatrix in="SourceAlpha" type="matrix" values="0 0 0 0 0 0 0 0 0 0 0 0 0 0 0 0 0 0 127 0" result="hardAlpha"/>
<feOffset dx="8" dy="8"/>
<feGaussianBlur stdDeviation="10"/>
<feComposite in2="hardAlpha" operator="out"/>
<feColorMatrix type="matrix" values="0 0 0 0 0.298039 0 0 0 0 0.470588 0 0 0 0 0.223529 0 0 0 1 0"/>
<feBlend mode="normal" in2="BackgroundImageFix" result="effect1_dropShadow_658_837"/>
<feBlend mode="normal" in="SourceGraphic" in2="effect1_dropShadow_658_837" result="shape"/>
</filter>
<filter id="filter1_d_658_837" x="792.659" y="88.1362" width="979.515" height="351.079" filterUnits="userSpaceOnUse" color-interpolation-filters="sRGB">
<feFlood flood-opacity="0" result="BackgroundImageFix"/>
<feColorMatrix in="SourceAlpha" type="matrix" values="0 0 0 0 0 0 0 0 0 0 0 0 0 0 0 0 0 0 127 0" result="hardAlpha"/>
<feOffset dx="8" dy="8"/>
<feGaussianBlur stdDeviation="10"/>
<feComposite in2="hardAlpha" operator="out"/>
<feColorMatrix type="matrix" values="0 0 0 0 0.298039 0 0 0 0 0.470588 0 0 0 0 0.223529 0 0 0 1 0"/>
<feBlend mode="normal" in2="BackgroundImageFix" result="effect1_dropShadow_658_837"/>
<feBlend mode="normal" in="SourceGraphic" in2="effect1_dropShadow_658_837" result="shape"/>
</filter>
</defs>
</svg>
