<svg width="1512" height="930" viewBox="0 0 1512 930" fill="none" xmlns="http://www.w3.org/2000/svg">
<g filter="url(#filter0_d_1110_519)">
<path d="M1566 329.16C1614 295.007 1448 495.199 1327 438.978C1206 382.756 1257 215.141 1140.5 128.971C1024 42.8008 918.5 191.496 824.5 147.887C730.5 104.277 692 16 692 16" stroke="black" stroke-width="20"/>
</g>
<g filter="url(#filter1_d_1110_519)">
<path d="M464 1131.75C461.831 1190.53 468.576 933.696 355.5 863.08C242.424 792.464 229 975.58 116.5 899.58C4 823.58 91.7883 625.117 4 570.222C-83.7883 515.327 -297 570.222 -297 570.222" stroke="black" stroke-width="20"/>
</g>
<defs>
<filter id="filter0_d_1110_519" x="670.837" y="-0.0078125" width="941.639" height="487.008" filterUnits="userSpaceOnUse" color-interpolation-filters="sRGB">
<feFlood flood-opacity="0" result="BackgroundImageFix"/>
<feColorMatrix in="SourceAlpha" type="matrix" values="0 0 0 0 0 0 0 0 0 0 0 0 0 0 0 0 0 0 127 0" result="hardAlpha"/>
<feOffset dx="8" dy="8"/>
<feGaussianBlur stdDeviation="10"/>
<feComposite in2="hardAlpha" operator="out"/>
<feColorMatrix type="matrix" values="0 0 0 0 0.298039 0 0 0 0 0.470588 0 0 0 0 0.223529 0 0 0 1 0"/>
<feBlend mode="normal" in2="BackgroundImageFix" result="effect1_dropShadow_1110_519"/>
<feBlend mode="normal" in="SourceGraphic" in2="effect1_dropShadow_1110_519" result="shape"/>
</filter>
<filter id="filter1_d_1110_519" x="-311.488" y="523.824" width="813.481" height="654.602" filterUnits="userSpaceOnUse" color-interpolation-filters="sRGB">
<feFlood flood-opacity="0" result="BackgroundImageFix"/>
<feColorMatrix in="SourceAlpha" type="matrix" values="0 0 0 0 0 0 0 0 0 0 0 0 0 0 0 0 0 0 127 0" result="hardAlpha"/>
<feOffset dx="8" dy="8"/>
<feGaussianBlur stdDeviation="10"/>
<feComposite in2="hardAlpha" operator="out"/>
<feColorMatrix type="matrix" values="0 0 0 0 0.298039 0 0 0 0 0.470588 0 0 0 0 0.223529 0 0 0 1 0"/>
<feBlend mode="normal" in2="BackgroundImageFix" result="effect1_dropShadow_1110_519"/>
<feBlend mode="normal" in="SourceGraphic" in2="effect1_dropShadow_1110_519" result="shape"/>
</filter>
</defs>
</svg>
