<?xml version="1.0" encoding="iso-8859-1"?>
<!-- Uploaded to: SVG Repo, www.svgrepo.com, Generator: SVG Repo Mixer Tools -->
<svg version="1.1" id="Layer_1" xmlns="http://www.w3.org/2000/svg" xmlns:xlink="http://www.w3.org/1999/xlink" 
	 viewBox="0 0 512.001 512.001" xml:space="preserve">
<rect x="130.744" y="50.996" style="fill:#BAC6CC;" width="250.507" height="32.307"/>
<polyline style="fill:#CFDCE5;" points="381.256,135.279 381.256,463.324 130.752,463.324 130.752,135.279 "/>
<g>
	<polyline style="fill:#BAC6CC;" points="180.963,135.279 180.963,463.324 130.752,463.324 130.752,135.279 	"/>
	<polyline style="fill:#BAC6CC;" points="381.256,135.279 381.256,186.087 130.752,186.087 130.752,135.279 	"/>
</g>
<g>
	<rect x="121.146" y="8.284" style="fill:#CFDCE5;" width="269.714" height="42.714"/>
	<rect x="121.146" y="463.327" style="fill:#CFDCE5;" width="269.714" height="40.393"/>
</g>
<g>
	<rect x="121.146" y="8.284" style="fill:#BAC6CC;" width="64.239" height="42.714"/>
	<rect x="121.146" y="463.327" style="fill:#BAC6CC;" width="64.239" height="40.393"/>
</g>
<path style="fill:#CFDCE5;" d="M424.734,101.296c-11.996-11.996-27.719-17.995-43.452-17.995H256.001H130.72
	c-15.733,0-31.455,5.999-43.452,17.995c-19.189,19.199-19.189,50.317,0,69.516c15.357,15.357,40.256,15.357,55.612,0
	c4.351-4.351,7.153-9.66,8.422-15.248l0,0h209.247l0.116-0.161c1.251,5.646,4.065,11.017,8.457,15.408
	c15.357,15.357,40.256,15.357,55.612,0C443.923,151.614,443.923,120.495,424.734,101.296z"/>
<g>
	<path style="fill:#BAC6CC;" d="M201.882,221.432L201.882,221.432c-15.555,0-28.165,12.61-28.165,28.165v213.726h56.331V249.598
		C230.048,234.041,217.438,221.432,201.882,221.432z"/>
	<path style="fill:#BAC6CC;" d="M310.126,221.432L310.126,221.432c-15.555,0-28.165,12.61-28.165,28.165v213.726h56.331V249.598
		C338.291,234.041,325.682,221.432,310.126,221.432z"/>
</g>
<path d="M381.257,346.796c4.575,0,8.284-3.709,8.284-8.284V190.04c2.422,0.376,4.89,0.573,7.387,0.573
	c12.716,0,24.672-4.952,33.665-13.945c22.383-22.394,22.383-58.833-0.001-81.229c-11.202-11.202-25.551-18.103-41.052-19.921V59.282
	h1.317c4.575,0,8.284-3.709,8.284-8.284V8.284c0-4.575-3.709-8.284-8.284-8.284h-69.618c-4.575,0-8.284,3.709-8.284,8.284
	s3.709,8.284,8.284,8.284h61.334v26.146h-1.317H130.747h-1.317V16.568h164.195c4.575,0,8.284-3.709,8.284-8.284S298.2,0,293.625,0
	h-172.48c-4.575,0-8.284,3.709-8.284,8.284v42.714c0,4.575,3.709,8.284,8.284,8.284h1.317v16.237
	c-15.502,1.818-29.851,8.719-41.054,19.922c-22.383,22.394-22.383,58.833,0.001,81.229c8.992,8.992,20.946,13.945,33.664,13.945
	c2.501,0,4.969-0.199,7.394-0.574v265h-1.322c-4.575,0-8.284,3.709-8.284,8.284v40.393c0,4.575,3.709,8.284,8.284,8.284h269.71
	c4.575,0,8.284-3.709,8.284-8.284v-40.393c0-4.575-3.709-8.284-8.284-8.284h-1.315v-88.914c0-4.575-3.709-8.284-8.284-8.284
	s-8.284,3.709-8.284,8.284v88.914h-26.397V249.599c0-20.098-16.351-36.449-36.449-36.449c-20.098,0-36.449,16.351-36.449,36.449
	v205.442H238.33V249.599c0-20.098-16.351-36.449-36.449-36.449s-36.449,16.351-36.449,36.449v35.897
	c0,4.575,3.709,8.284,8.284,8.284s8.284-3.709,8.284-8.284v-35.897c0-10.962,8.919-19.881,19.881-19.881
	c10.962,0,19.881,8.919,19.881,19.881v205.442H182V313.109c0-4.575-3.709-8.284-8.284-8.284s-8.284,3.709-8.284,8.284v141.932
	h-26.397V184.156c3.498-2.046,6.761-4.545,9.702-7.485c3.787-3.787,6.642-8.157,8.578-12.82h197.342
	c1.972,4.735,4.871,9.085,8.606,12.82c2.942,2.944,6.207,5.444,9.709,7.49v154.353C372.973,343.087,376.681,346.796,381.257,346.796
	z M290.244,249.598c0-10.962,8.919-19.881,19.882-19.881c10.962,0,19.881,8.919,19.881,19.881V455.04h-39.763V249.598z
	 M381.257,471.607h1.315v23.825H129.43v-23.825h1.322H381.257z M372.971,59.282v15.734l-233.94,0.002V59.282H372.971z
	 M321.669,91.585c-19.316,13.484-41.968,20.619-65.664,20.619c-23.703,0-46.359-7.135-65.675-20.619H321.669z M410.568,120.466
	c-6.315-6.321-14.713-9.803-23.65-9.803c-8.935,0-17.336,3.48-23.655,9.799c-7.203,7.203-11.289,16.684-11.61,26.818H160.328
	c-0.313-9.745-4.17-19.397-11.592-26.818c-6.319-6.319-14.719-9.799-23.655-9.799s-17.334,3.481-23.65,9.803
	c-3.233,3.236-3.231,8.482,0.007,11.715c3.236,3.233,8.482,3.231,11.715-0.006c3.184-3.189,7.421-4.944,11.928-4.944
	c4.51,0,8.749,1.756,11.939,4.947c9.036,9.036,9.036,23.74,0,32.776c-5.863,5.863-13.657,9.091-21.949,9.091
	s-16.085-3.229-21.947-9.09c-15.928-15.936-15.928-41.866-0.001-57.801c10.039-10.039,23.391-15.568,37.594-15.568h0.028h9.669
	c14.162,0.023,27.483,4.26,38.529,12.26c22.516,16.307,49.162,24.927,77.06,24.927c27.889,0,54.533-8.62,77.048-24.926
	c11.047-8.001,24.368-12.238,38.529-12.261h9.672h0.027c14.203,0,27.555,5.529,37.593,15.567
	c15.928,15.937,15.928,41.867,0.001,57.802c-5.863,5.863-13.657,9.091-21.949,9.091c-8.291,0-16.085-3.229-21.948-9.091
	c-4.377-4.377-6.788-10.197-6.788-16.388c0-6.19,2.411-12.011,6.788-16.388c3.19-3.19,7.43-4.947,11.939-4.947
	c4.508,0,8.743,1.755,11.928,4.944c3.233,3.236,8.478,3.238,11.715,0.006C413.799,128.948,413.801,123.703,410.568,120.466z"/>
</svg>