<?xml version="1.0" encoding="iso-8859-1"?>
<!-- Uploaded to: SVG Repo, www.svgrepo.com, Generator: SVG Repo Mixer Tools -->
<svg version="1.1" id="Layer_1" xmlns="http://www.w3.org/2000/svg" xmlns:xlink="http://www.w3.org/1999/xlink" 
	 viewBox="0 0 503.467 503.467" xml:space="preserve">
<g transform="translate(1 1)">
	<path style="fill:#FFD0A1;" d="M455.533,3.267c23.893,0,42.667,18.773,42.667,42.667c0,13.653-6.827,26.453-17.067,34.133V421.4
		c10.24,7.68,17.067,20.48,17.067,34.133c0,23.893-18.773,42.667-42.667,42.667c-13.653,0-26.453-6.827-34.133-17.067H80.067
		c-7.68,10.24-20.48,17.067-34.133,17.067c-23.893,0-42.667-18.773-42.667-42.667c0-13.653,6.827-26.453,17.067-34.133V80.067
		c-10.24-7.68-17.067-20.48-17.067-34.133c0-23.893,18.773-42.667,42.667-42.667c13.653,0,26.453,6.827,34.133,17.067H421.4
		C429.08,10.093,441.88,3.267,455.533,3.267L455.533,3.267z"/>
	<rect x="54.467" y="54.467" style="fill:#ECF4F7;" width="392.533" height="392.533"/>
	<path style="fill:#50DD8E;" d="M447,319v128H54.467c0,0,51.2-85.333,110.933-85.333s93.867,34.133,93.867,34.133
		s34.133-85.333,153.6-85.333C412.867,310.467,429.933,310.467,447,319z M344.6,139.8c25.6,0,34.133,68.267,34.133,102.4
		c0,18.773-15.36,34.133-34.133,34.133c-18.773,0-34.133-15.36-34.133-34.133C310.467,208.067,319,139.8,344.6,139.8z"/>
	<path style="fill:#FFE079;" d="M197.827,150.04c5.973,5.973,10.24,14.507,10.24,23.893s-3.413,17.92-10.24,23.893
		c-5.973,5.973-14.507,10.24-23.893,10.24s-17.92-4.267-23.893-10.24c-5.973-5.973-10.24-14.507-10.24-23.893
		s4.267-17.92,10.24-23.893c5.973-5.973,14.507-10.24,23.893-10.24C183.32,139.8,191.853,143.214,197.827,150.04"/>
</g>
<path style="fill:#51565F;" d="M456.533,503.467c-13.653,0-27.307-5.973-35.84-17.067H82.774
	c-9.387,11.093-22.187,17.067-35.84,17.067C21.333,503.467,0,482.134,0,456.534c0-13.653,5.973-27.307,17.067-35.84V82.773
	C5.974,73.387,0,60.587,0,46.933C0,21.333,21.333,0,46.933,0c13.653,0,27.307,5.973,35.84,17.067h337.92
	C430.08,5.973,442.88,0,456.534,0c25.6,0,46.933,21.333,46.933,46.933c0,13.653-5.973,27.307-17.067,35.84v337.92
	c11.093,9.387,17.067,22.187,17.067,35.84C503.467,482.134,482.133,503.467,456.533,503.467z M81.067,477.867H422.4
	c1.707,0,2.56,0.853,3.413,1.707c7.68,9.387,18.773,15.36,30.72,15.36c21.333,0,38.4-17.067,38.4-38.4
	c0-11.947-5.973-23.04-15.36-30.72c-0.853-0.853-1.707-1.707-1.707-3.413V81.067c0-1.707,0.853-2.56,1.707-3.413
	c9.387-7.68,15.36-18.773,15.36-30.72c0-21.333-17.067-38.4-38.4-38.4c-11.947,0-23.04,5.973-30.72,15.36
	c-0.853,0.853-1.707,1.707-3.413,1.707H81.067c-1.707,0-2.56-0.853-3.413-1.707c-7.68-9.387-18.773-15.36-30.72-15.36
	c-21.333,0-38.4,17.067-38.4,38.4c0,11.947,5.973,23.04,15.36,30.72c0.853,0.853,1.707,1.707,1.707,3.413V422.4
	c0,1.707-0.853,2.56-1.707,3.413c-9.387,7.68-15.36,18.773-15.36,30.72c0,21.333,17.067,38.4,38.4,38.4
	c11.947,0,23.04-5.973,30.72-15.36C78.507,478.72,79.36,477.867,81.067,477.867z M448,452.267H89.6c-2.56,0-4.267-1.707-4.267-4.267
	c0-2.56,1.707-4.267,4.267-4.267h354.133v-384h-384v373.76C76.8,409.6,118.613,358.4,166.4,358.4
	c49.493,0,81.067,22.187,92.16,31.573c7.68-13.653,30.72-50.347,82.773-69.973v-38.4c-18.773-2.56-34.133-18.773-34.133-38.4
	c0-29.867,6.827-106.667,38.4-106.667S384,213.334,384,243.2c0,19.627-15.36,35.84-34.133,38.4v34.987
	c17.92-5.973,39.253-9.387,64-9.387c2.56,0,4.267,1.707,4.267,4.267c0,2.56-1.707,4.267-4.267,4.267
	c-25.6,0-47.787,4.267-65.707,10.24c-0.853,0-0.853,0.853-1.707,0.853c-60.587,22.187-81.067,69.12-81.92,71.68
	c-0.853,1.707-1.707,2.56-3.413,2.56c-1.707,0-2.56,0-4.267-0.853c0,0-34.133-33.28-90.453-33.28S59.733,449.707,58.88,450.56
	c-0.853,1.707-2.56,2.56-5.12,1.707c-1.707-0.853-3.413-2.56-3.413-4.267V55.467c0-2.56,1.707-4.267,4.267-4.267h392.533
	c2.56,0,4.267,1.707,4.267,4.267V448C452.267,450.56,450.56,452.267,448,452.267z M345.6,145.067
	c-19.627,0-29.867,58.027-29.867,98.133c0,16.213,13.653,29.867,29.867,29.867c16.213,0,29.867-13.653,29.867-29.867
	C375.467,203.094,365.227,145.067,345.6,145.067z M174.933,247.467c-2.56,0-4.267-1.707-4.267-4.267v-29.867
	c-7.68-0.853-14.507-3.413-19.627-8.533l-21.333,21.333c-1.707,1.707-4.267,1.707-5.973,0c-0.853-0.853-0.853-1.707-0.853-3.413
	s0-2.56,0.853-3.413l21.333-21.333c-4.267-5.12-7.68-11.947-8.533-19.627h-29.867c-2.56,0-4.267-1.707-4.267-4.267
	c0-2.56,1.707-4.267,4.267-4.267h29.867c0.853-7.68,3.413-14.507,8.533-19.627l-21.333-21.333c-0.853-0.853-0.853-1.707-0.853-3.413
	c0-1.707,0-2.56,0.853-3.413c1.707-1.707,4.267-1.707,5.973,0l21.333,21.333c5.12-4.267,11.947-7.68,19.627-8.533v-29.867
	c0-2.56,1.707-4.267,4.267-4.267l0,0c2.56,0,4.267,1.707,4.267,4.267v29.867c7.68,0.853,14.507,3.413,19.627,8.533l21.333-21.333
	c1.707-1.707,4.267-1.707,5.973,0c0.853,0.853,0.853,1.707,0.853,3.413c0,1.707,0,2.56-0.853,3.413L204.8,150.187
	c4.267,5.12,7.68,11.947,8.533,19.627H243.2c2.56,0,4.267,1.707,4.267,4.267c0,2.56-1.707,4.267-4.267,4.267h-29.867
	c-0.853,7.68-3.413,14.507-8.533,19.627l21.333,21.333c0.853,0.853,0.853,1.707,0.853,3.413c0,0.853,0,2.56-0.853,3.413
	c-1.707,1.707-4.267,1.707-5.973,0L198.827,204.8c-5.12,4.267-11.947,7.68-19.627,8.533V243.2
	C179.2,245.76,177.493,247.467,174.933,247.467z M174.933,204.8L174.933,204.8c16.213,0,29.867-13.653,29.867-29.867l0,0l0,0
	c0-16.213-13.653-29.867-29.867-29.867s-29.867,13.653-29.867,29.867S158.72,204.8,174.933,204.8L174.933,204.8z"/>
</svg>