<svg width="75" height="70" viewBox="0 0 75 70" fill="none" xmlns="http://www.w3.org/2000/svg">
<g clip-path="url(#clip0_657_782)">
<path d="M48.4187 25.0863L38.6719 33.5777V20.7817C38.6719 20.1772 38.1477 19.688 37.5 19.688C36.8528 19.688 36.3281 20.1772 36.3281 20.7817V36.0942C36.3281 36.5301 36.605 36.9242 37.033 37.0972C37.183 37.1581 37.342 37.188 37.5 37.188C37.7906 37.188 38.0778 37.0866 38.2999 36.8943L50.0187 26.6863C50.4913 26.274 50.5165 25.5819 50.0759 25.1397C49.6342 24.6986 48.8937 24.674 48.4187 25.0863Z" fill="black"/>
<path d="M37.5 14.3037C38.1477 14.3037 38.6719 13.8145 38.6719 13.21V11.0225C38.6719 10.4178 38.1477 9.92871 37.5 9.92871C36.8528 9.92871 36.3281 10.4178 36.3281 11.0225V13.21C36.3281 13.8145 36.8528 14.3037 37.5 14.3037Z" fill="black"/>
<path d="M19.8594 16.818C19.3703 16.4206 18.6303 16.4676 18.2058 16.9248C17.7812 17.3798 17.8322 18.0709 18.3203 18.4671L20.664 20.3716C20.886 20.5521 21.1601 20.6407 21.433 20.6407C21.7603 20.6407 22.0859 20.5136 22.3177 20.2648C22.7422 19.8098 22.6912 19.1187 22.2032 18.7224L19.8594 16.818Z" fill="black"/>
<path d="M14.1533 33.9067H11.8096C11.1625 33.9067 10.6377 34.396 10.6377 35.0005C10.6377 35.6051 11.1625 36.0942 11.8096 36.0942H14.1533C14.8004 36.0942 15.3252 35.6051 15.3252 35.0005C15.3252 34.396 14.8004 33.9067 14.1533 33.9067Z" fill="black"/>
<path d="M20.4525 49.233L18.4132 51.1374C17.9559 51.5648 17.9559 52.2569 18.4138 52.6841C18.6426 52.8977 18.9424 53.0046 19.2423 53.0046C19.5421 53.0046 19.8425 52.8977 20.0714 52.6841L22.1107 50.7797C22.568 50.3525 22.568 49.6602 22.1102 49.233C21.6524 48.8058 20.9102 48.8058 20.4525 49.233Z" fill="black"/>
<path d="M37.5 55.4741C36.8528 55.4741 36.3281 55.9632 36.3281 56.5679V58.7554C36.3281 59.3599 36.8528 59.8491 37.5 59.8491C38.1477 59.8491 38.6719 59.3599 38.6719 58.7554V56.5679C38.6719 55.9632 38.1477 55.4741 37.5 55.4741Z" fill="black"/>
<path d="M54.7475 49.233C54.2898 48.8058 53.5482 48.8058 53.0905 49.233C52.6326 49.6592 52.6326 50.3525 53.0905 50.7797L54.7899 52.3669C55.0188 52.5805 55.3185 52.6873 55.6184 52.6873C55.9183 52.6873 56.2181 52.5805 56.4469 52.3669C56.9048 51.9407 56.9048 51.2475 56.4469 50.8203L54.7475 49.233Z" fill="black"/>
<path d="M62.9517 33.9067H60.6079C59.9602 33.9067 59.436 34.396 59.436 35.0005C59.436 35.6051 59.9602 36.0942 60.6079 36.0942H62.9517C63.5994 36.0942 64.1235 35.6051 64.1235 35.0005C64.1235 34.396 63.5994 33.9067 62.9517 33.9067Z" fill="black"/>
<path d="M54.7899 17.1866L53.0905 18.7739C52.6326 19.2011 52.6326 19.8943 53.0905 20.3205C53.3193 20.5342 53.6191 20.6409 53.919 20.6409C54.2189 20.6409 54.5186 20.5342 54.7475 20.3205L56.4469 18.7333C56.9048 18.3061 56.9048 17.6129 56.4469 17.1866C55.9892 16.7594 55.2476 16.7594 54.7899 17.1866Z" fill="black"/>
<path d="M37.5 0.000488281C16.7893 0.000488281 0 15.6705 0 35.0005C0 54.3304 16.7893 70.0005 37.5 70.0005C58.2107 70.0005 75 54.3304 75 35.0005C75 15.6705 58.2107 0.000488281 37.5 0.000488281ZM37.5 67.813C18.1147 67.813 2.34375 53.0934 2.34375 35.0005C2.34375 16.9077 18.1147 2.18799 37.5 2.18799C56.8852 2.18799 72.6562 16.9077 72.6562 35.0005C72.6562 53.0934 56.8852 67.813 37.5 67.813Z" fill="black"/>
<path d="M37.5 5.46924C20.0253 5.46924 5.85938 18.6908 5.85938 35.0005C5.85938 51.3102 20.0253 64.5317 37.5 64.5317C54.9745 64.5317 69.1406 51.3102 69.1406 35.0005C69.1406 18.6908 54.9745 5.46924 37.5 5.46924ZM37.5 62.3442C21.3456 62.3442 8.20312 50.0779 8.20312 35.0005C8.20312 19.9231 21.3456 7.65674 37.5 7.65674C53.6543 7.65674 66.7969 19.9231 66.7969 35.0005C66.7969 50.0779 53.6543 62.3442 37.5 62.3442Z" fill="black"/>
</g>
<defs>
<clipPath id="clip0_657_782">
<rect width="75" height="70" fill="white" transform="translate(0 0.000488281)"/>
</clipPath>
</defs>
</svg>
