<svg width="75" height="70" viewBox="0 0 75 70" fill="none" xmlns="http://www.w3.org/2000/svg">
<g clip-path="url(#clip0_655_520)">
<path d="M55.9018 19.2411C55.4632 18.7955 54.7202 18.7658 54.2425 19.1749C53.7648 19.5844 53.7331 20.2777 54.1716 20.7237C58.011 24.6271 60.1255 29.6972 60.1255 35C60.1255 46.6439 49.9759 56.1169 37.5002 56.1169C25.0246 56.1169 14.8749 46.6439 14.8749 35C14.8749 23.356 25.0245 13.8831 37.5001 13.8831C42.2292 13.8831 46.7586 15.2304 50.5986 17.7796C51.1271 18.1308 51.8604 18.0147 52.236 17.5216C52.6119 17.0283 52.4882 16.344 51.9596 15.9933C47.72 13.1787 42.7199 11.6909 37.5001 11.6909C23.7295 11.6909 12.5261 22.1474 12.5261 35C12.5261 47.8525 23.7295 58.309 37.5001 58.309C51.2707 58.309 62.4741 47.8525 62.4741 35C62.4741 29.1468 60.14 23.55 55.9018 19.2411Z" fill="black"/>
<path d="M37.5 19.875C28.5642 19.875 21.2944 26.6602 21.2944 35.0002C21.2944 37.6594 22.0446 40.2751 23.4636 42.5643C23.7883 43.0881 24.5067 43.2672 25.0682 42.9641C25.6295 42.6608 25.8214 41.9904 25.4965 41.4664C24.2839 39.5104 23.6429 37.2745 23.6429 35.0002C23.6429 27.8688 29.8591 22.067 37.4999 22.067C45.1406 22.067 51.3568 27.8688 51.3568 35.0002C51.3568 42.1316 45.1408 47.9334 37.5 47.9334C34.0847 47.9334 30.8041 46.7639 28.2618 44.6401C27.7783 44.236 27.036 44.2748 26.6036 44.7257C26.171 45.1767 26.2122 45.8696 26.6953 46.2735C29.6687 48.7574 33.506 50.1254 37.4999 50.1254C46.4357 50.1254 53.7054 43.3402 53.7054 35.0002C53.7054 26.6602 46.4358 19.875 37.5 19.875Z" fill="black"/>
<path d="M11.1952 14.0294C10.5465 14.0294 10.0208 14.52 10.0208 15.1255V23.3092C10.0208 23.9942 9.42373 24.5514 8.68984 24.5514H7.35889V15.1254C7.35889 14.52 6.8333 14.0293 6.18452 14.0293C5.53589 14.0293 5.01016 14.5198 5.01016 15.1254V24.5513H3.6792C2.94531 24.5513 2.34824 23.994 2.34824 23.3091V15.1254C2.34824 14.52 1.82266 14.0293 1.17388 14.0293C0.525244 14.0293 -0.000488281 14.5198 -0.000488281 15.1254V23.3091C-0.000488281 25.2028 1.6501 26.7433 3.67905 26.7433H5.01001V40.9187H3.67905C3.03042 40.9187 2.50469 41.4093 2.50469 42.0148V52.5367C2.50469 54.4304 4.15527 55.9709 6.18423 55.9709C8.21318 55.9709 9.86377 54.4304 9.86377 52.5367V42.0148C9.86377 41.4094 9.33818 40.9187 8.6894 40.9187H7.35845V26.7435H8.6894C10.7184 26.7435 12.3689 25.2029 12.3689 23.3092V15.1254C12.3695 14.52 11.8438 14.0294 11.1952 14.0294ZM7.51562 43.1109V52.5368C7.51562 53.2218 6.91855 53.779 6.18467 53.779C5.45078 53.779 4.85371 53.2218 4.85371 52.5368V43.1109H7.51562Z" fill="black"/>
<path d="M74.2592 14.1068C73.812 13.9408 73.3016 14.0468 72.9713 14.3733C71.4652 15.8636 70.1472 17.5039 69.0539 19.2484C65.14 25.4951 64.7648 31.946 65.1394 36.2578C65.1889 36.8269 65.6982 37.2653 66.3099 37.2653H67.6409V52.5367C67.6409 54.4304 69.2915 55.9709 71.3204 55.9709C73.3494 55.9709 75 54.4304 75 52.5367V15.1254C75 14.6764 74.7064 14.2725 74.2592 14.1068ZM68.8151 35.0732H67.411C67.2101 31.1183 67.7676 25.6441 71.0815 20.355C71.559 19.5929 72.0835 18.8523 72.6512 18.1375V40.9187H69.9895V36.1692C69.9893 35.5639 69.4637 35.0732 68.8151 35.0732ZM72.6514 52.5367C72.6514 53.2216 72.0543 53.7789 71.3204 53.7789C70.5865 53.7789 69.9895 53.2216 69.9895 52.5367V43.1107H72.6512V52.5367H72.6514Z" fill="black"/>
<path d="M37.5 26.3047C33.1297 26.3047 30.0627 33.0835 30.0627 36.7536C30.0627 40.581 33.3992 43.695 37.5 43.695C41.6009 43.695 44.9374 40.581 44.9374 36.7536C44.9374 33.0835 41.8704 26.3047 37.5 26.3047ZM37.5 28.4967C38.5604 28.4967 39.6463 29.485 40.5417 30.8403C39.6147 31.3168 38.5798 31.5656 37.5 31.5656C36.4203 31.5656 35.3854 31.3168 34.4584 30.8403C35.3538 29.485 36.4396 28.4967 37.5 28.4967ZM33.4016 32.8002C34.654 33.4295 36.0475 33.7576 37.5 33.7576C38.9526 33.7576 40.3461 33.4292 41.5985 32.8002C41.8205 33.3063 42.0118 33.8219 42.1657 34.3268C40.9656 35.5488 39.2952 36.2421 37.5 36.2421C35.7049 36.2421 34.0345 35.5488 32.8345 34.3267C32.9885 33.8218 33.1796 33.3063 33.4016 32.8002ZM37.5 41.503C34.7482 41.503 32.5013 39.4536 32.4154 36.9042C33.8759 37.8921 35.6394 38.4341 37.5 38.4341C39.3608 38.4341 41.1244 37.892 42.5847 36.9042C42.4988 39.4536 40.2519 41.503 37.5 41.503Z" fill="black"/>
</g>
<defs>
<clipPath id="clip0_655_520">
<rect width="75" height="70" fill="white"/>
</clipPath>
</defs>
</svg>
