<svg width="75" height="70" viewBox="0 0 75 70" fill="none" xmlns="http://www.w3.org/2000/svg">
<path d="M59.9538 52.8068C63.108 57.4421 64.5945 59.903 64.5945 62.47C64.5945 67.5395 60.5604 69.9976 55.1257 69.9976C52.73 69.9976 51.1836 69.9948 47.2754 68.0971C47.2754 68.0971 44.7431 65.9343 38.817 66.1564C32.8356 65.9357 30.3018 68.1243 30.3018 68.1243C26.3935 70.0205 24.9024 70.0005 22.5098 70.0005C17.0751 70.0005 13.0379 67.5453 13.0379 62.4729C13.0379 59.9059 14.529 57.4478 17.6817 52.8097C17.6817 52.8097 23.6416 43.5722 28.806 39.2265C32.5377 36.0905 37.9785 36.102 37.9785 36.102H39.657C39.657 36.102 45.3359 36.0876 48.8341 39.2265C53.8388 43.7299 59.9538 52.8083 59.9538 52.8068ZM25.5397 29.9245C31.2216 29.9245 35.8271 23.2254 35.8271 14.9625C35.8271 6.69964 31.2216 0.000488281 25.5397 0.000488281C19.8578 0.000488281 15.2523 6.69964 15.2523 14.9625C15.2523 23.2254 19.8578 29.9245 25.5397 29.9245ZM15.6808 44.415C19.8685 42.6105 20.8237 36.2123 17.8123 30.1237C14.8008 24.0352 8.96534 20.5609 4.7776 22.364C0.589857 24.167 -0.363786 30.5666 2.6461 36.6552C5.65753 42.7438 11.493 46.2166 15.6808 44.415ZM49.4576 29.9245C55.1395 29.9245 59.7465 23.2254 59.7465 14.9625C59.7465 6.69964 55.1395 0.000488281 49.4576 0.000488281C43.7756 0.000488281 39.1702 6.69964 39.1702 14.9625C39.1702 23.2254 43.7756 29.9245 49.4576 29.9245ZM70.2212 22.3625C66.0319 20.558 60.198 24.0323 57.1865 30.1223C54.1751 36.2123 55.1303 42.6105 59.3196 44.415C63.5088 46.2181 69.3428 42.7438 72.3542 36.6552C75.3656 30.5666 74.4105 24.167 70.2212 22.3625Z" fill="#030104"/>
</svg>
