<svg width="75" height="70" viewBox="0 0 75 70" fill="none" xmlns="http://www.w3.org/2000/svg">
<path d="M5.85938 33.9067C5.2125 33.9067 4.6875 33.4167 4.6875 32.813V24.063C4.6875 21.6502 6.78984 19.688 9.375 19.688H15.2344C15.8813 19.688 16.4062 20.178 16.4062 20.7817C16.4062 21.3855 15.8813 21.8755 15.2344 21.8755H9.375C8.08359 21.8755 7.03125 22.8555 7.03125 24.063V32.813C7.03125 33.4167 6.50625 33.9067 5.85938 33.9067Z" fill="black"/>
<path d="M56.8877 21.8755H65.6252C66.2721 21.8755 66.7971 21.3855 66.7971 20.7817C66.7971 20.178 66.2721 19.688 65.6252 19.688H54.5439L56.8877 21.8755Z" fill="black"/>
<path d="M34.4671 5.58935L36.1382 7.14904C36.5952 7.5756 37.3382 7.5756 37.7952 7.14904C38.2522 6.72248 38.2522 6.02904 37.7952 5.60248L34.4812 2.50935C34.1413 2.19216 33.6304 2.10029 33.1921 2.27966C32.7515 2.45248 32.4702 2.86154 32.4819 3.31216C32.5944 7.58873 25.6288 15.28 15.3022 25.1587H18.5929C27.2952 16.7456 33.0233 10.3056 34.4671 5.58935Z" fill="black"/>
<path d="M41.9365 9.46777L58.7459 25.1565H62.06L42.7639 7.14902C42.3068 6.72246 41.5662 6.72246 41.1068 7.14902L21.8154 25.1565H25.1295L41.9365 9.46777Z" fill="black"/>
<path d="M66.7969 54.688H51.5625C46.3922 54.688 42.1875 50.7636 42.1875 45.938C42.1875 41.1124 46.3922 37.188 51.5625 37.188H66.7969C70.0266 37.188 72.6562 39.6402 72.6562 42.6567V49.2192C72.6562 52.2336 70.0266 54.688 66.7969 54.688ZM51.5625 39.3755C47.6859 39.3755 44.5312 42.3199 44.5312 45.938C44.5312 49.5561 47.6859 52.5005 51.5625 52.5005H66.7969C68.7352 52.5005 70.3125 51.0283 70.3125 49.2192V42.6567C70.3125 40.8477 68.7352 39.3755 66.7969 39.3755H51.5625Z" fill="black"/>
<path d="M51.5625 50.313C48.9773 50.313 46.875 48.353 46.875 45.938C46.875 43.5252 48.9773 41.563 51.5625 41.563C54.1477 41.563 56.25 43.5252 56.25 45.938C56.25 48.353 54.1477 50.313 51.5625 50.313ZM51.5625 43.7505C50.2711 43.7505 49.2188 44.7305 49.2188 45.938C49.2188 47.1455 50.2711 48.1255 51.5625 48.1255C52.8539 48.1255 53.9062 47.1455 53.9062 45.938C53.9062 44.7305 52.8539 43.7505 51.5625 43.7505Z" fill="black"/>
<path d="M4.6875 63.438V28.438C4.6875 26.023 6.7875 24.063 9.375 24.063H65.625C68.2102 24.063 70.3125 26.0252 70.3125 28.438V33.9067C70.3125 34.5105 69.7875 35.0005 69.1406 35.0005C68.4938 35.0005 67.9688 34.5105 67.9688 33.9067V28.438C67.9688 27.2305 66.9164 26.2505 65.625 26.2505H9.375C8.08125 26.2505 7.03125 27.2305 7.03125 28.438V63.438C7.03125 64.6455 8.08359 65.6255 9.375 65.6255H65.625C66.9164 65.6255 67.9688 64.6455 67.9688 63.438V57.9692C67.9688 57.3655 68.4938 56.8755 69.1406 56.8755C69.7875 56.8755 70.3125 57.3655 70.3125 57.9692V63.438C70.3125 65.853 68.2102 67.813 65.625 67.813H9.375C6.78984 67.813 4.6875 65.853 4.6875 63.438Z" fill="black"/>
</svg>
