<svg width="534" height="832" viewBox="0 0 534 832" fill="none" xmlns="http://www.w3.org/2000/svg">
<path d="M3 827.002L13.9943 806.52H27.9871V667.645H35.4833V635.674H43.9789V387.396H55.473V294.979H137.431H143.428V287.486H138.93V273.998H164.917C164.917 273.998 177.41 252.018 177.41 239.03C177.41 226.041 177.91 219.547 177.91 218.548C177.91 217.549 176.91 215.551 174.412 215.551C171.913 215.551 171.413 218.048 168.415 220.047C165.416 222.045 161.918 222.045 160.919 219.547C159.919 217.049 160.919 212.054 160.919 212.054C160.919 212.054 165.916 199.565 164.917 195.569C163.917 191.572 151.923 188.575 151.923 185.078C151.923 181.581 156.921 181.581 158.92 179.083C160.919 176.586 157.42 169.092 154.922 163.098C152.423 157.103 148.925 150.609 152.923 146.113C154.389 144.464 163.98 149.955 168.415 160.1C176.072 177.62 179.926 205.06 183.407 205.06C188.904 205.06 188.904 198.566 188.405 197.067C187.905 195.569 183.407 190.074 187.405 185.078C191.403 180.082 195.401 181.581 198.899 185.078C202.397 188.575 198.899 193.57 198.899 197.067C198.899 200.564 199.399 206.559 204.896 205.06C210.393 203.561 212.392 178.584 217.39 168.593C222.387 158.602 226.885 153.606 233.881 146.113C240.878 138.62 235.38 165.595 233.881 168.593C232.382 171.59 224.886 172.589 224.386 177.085C223.886 181.581 236.88 180.582 236.38 185.078C235.88 189.574 220.888 189.574 220.888 195.569C220.888 201.563 221.887 198.566 225.885 212.054C229.883 225.542 217.39 212.054 211.892 215.551C206.395 219.048 211.892 237.031 211.892 237.031L224.386 273.998H234.381L453.452 149.11V124.632H459.765C459.765 124.632 457.266 113.642 459.765 105.649C462.264 97.6565 475.757 87.1659 476.756 82.6699C477.756 78.174 478.255 75.6762 475.257 75.1767C472.258 74.6771 462.264 81.6708 458.266 78.6735C454.268 75.6762 470.259 66.1847 469.76 61.6888C469.26 57.1928 460.764 52.6968 459.765 48.7004C458.765 44.704 470.259 44.704 467.261 40.7076C464.262 36.7112 444.772 42.2062 441.774 37.7103C438.776 33.2143 453.136 31.2161 453.452 24.7219C453.768 18.2278 434.278 12.2331 436.277 6.73808C438.276 1.24301 449.77 6.73808 449.77 6.73808C449.77 6.73808 475.757 26.2206 478.255 26.7201C480.754 27.2197 482.753 26.7201 483.253 24.7219C483.752 22.7237 480.754 13.2323 483.253 10.7345C485.751 8.23674 490.249 8.23674 493.248 10.7345C496.246 13.2323 491.748 22.2242 493.248 24.7219C494.747 27.2197 498.245 28.7184 501.743 26.7201C505.241 24.7219 511.738 10.2349 517.235 6.73808C522.732 3.24122 529.729 1.74256 535.726 4.24032C541.723 6.73808 520.234 21.2258 519.734 26.7201C519.234 32.2145 540.723 23.2225 541.723 31.2161C542.722 39.2097 518.235 35.2118 513.737 40.7076C509.239 46.2034 517.235 50.1998 517.235 56.1937C517.235 62.1876 503.742 49.6988 501.743 56.1937C499.744 62.6886 511.238 76.6761 511.738 82.6699C512.238 88.6638 513.737 90.6635 509.239 94.1596C504.742 97.6557 505.241 89.1634 501.743 94.1596C498.245 99.1559 513.737 124.632 513.737 124.632H524.232V150.92L541.5 160.5L540.695 302.972L540.504 336.804L537.725 829H3V827.002Z" fill="#4C7839" fill-opacity="0.42"/>
<path d="M27.9871 806.52H13.9943L3 827.002V829H537.725M27.9871 806.52V667.645H35.4833V635.674H43.9789V387.396H55.473V294.979H137.431H143.428V287.486H138.93V273.998H164.917M27.9871 806.52H537.658M234.381 273.998V287.486H231.882V335.943H250.872M234.381 273.998H224.386M234.381 273.998L453.452 149.11M250.872 335.943V302.972H358.817V335.943M250.872 335.943H358.817M358.817 335.943L435.277 336.804M486.751 130.127L541.5 160.5M486.751 130.127L453.452 149.11M486.751 130.127L524.232 150.92V124.632H513.737M541.5 160.5L540.695 302.972M541.5 160.5L537.725 829M537.725 829L537.658 806.52M537.658 806.52L540.504 336.804M164.917 273.998C164.917 273.998 177.41 252.018 177.41 239.03C177.41 226.041 177.91 219.547 177.91 218.548C177.91 217.549 176.91 215.551 174.412 215.551C171.913 215.551 171.413 218.048 168.415 220.047C165.416 222.045 161.918 222.045 160.919 219.547C159.919 217.049 160.919 212.054 160.919 212.054C160.919 212.054 165.916 199.565 164.917 195.569C163.917 191.572 151.923 188.575 151.923 185.078C151.923 181.581 156.921 181.581 158.92 179.083C160.919 176.586 157.42 169.092 154.922 163.098C152.423 157.103 148.925 150.609 152.923 146.113C154.389 144.464 163.98 149.955 168.415 160.1C176.072 177.62 179.926 205.06 183.407 205.06C188.904 205.06 188.904 198.566 188.405 197.067C187.905 195.569 183.407 190.074 187.405 185.078C191.403 180.082 195.401 181.581 198.899 185.078C202.397 188.575 198.899 193.57 198.899 197.067C198.899 200.564 199.399 206.559 204.896 205.06C210.393 203.561 212.392 178.584 217.39 168.593C222.387 158.602 226.885 153.606 233.881 146.113C240.878 138.62 235.38 165.595 233.881 168.593C232.382 171.59 224.886 172.589 224.386 177.085C223.886 181.581 236.88 180.582 236.38 185.078C235.88 189.574 220.888 189.574 220.888 195.569C220.888 201.563 221.887 198.566 225.885 212.054C229.883 225.542 217.39 212.054 211.892 215.551C206.395 219.048 211.892 237.031 211.892 237.031L224.386 273.998M164.917 273.998H224.386M540.504 336.804L540.695 302.972M540.504 336.804H435.277M540.695 302.972H435.277V336.804M453.452 149.11V124.632H459.765M459.765 124.632C459.765 124.632 457.266 113.642 459.765 105.649C462.264 97.6565 475.757 87.1659 476.756 82.6699C477.756 78.174 478.255 75.6762 475.257 75.1767C472.258 74.6771 462.264 81.6708 458.266 78.6735C454.268 75.6762 470.259 66.1847 469.76 61.6888C469.26 57.1928 460.764 52.6968 459.765 48.7004C458.765 44.704 470.259 44.704 467.261 40.7076C464.262 36.7112 444.773 42.2062 441.774 37.7103C438.776 33.2143 453.136 31.2161 453.452 24.7219C453.768 18.2278 434.278 12.2331 436.277 6.73808C438.276 1.24301 449.77 6.73808 449.77 6.73808C449.77 6.73808 475.757 26.2206 478.255 26.7201C480.754 27.2197 482.753 26.7201 483.253 24.7219C483.752 22.7237 480.754 13.2323 483.253 10.7345C485.751 8.23674 490.249 8.23674 493.248 10.7345C496.246 13.2323 491.748 22.2242 493.248 24.7219C494.747 27.2197 498.245 28.7184 501.743 26.7201C505.241 24.7219 511.738 10.2349 517.235 6.73808C522.732 3.24122 529.729 1.74256 535.726 4.24032C541.723 6.73808 520.234 21.2258 519.734 26.7201C519.234 32.2145 540.723 23.2225 541.723 31.2161C542.722 39.2097 518.235 35.2118 513.737 40.7076C509.239 46.2034 517.235 50.1998 517.235 56.1937C517.235 62.1876 503.742 49.6988 501.743 56.1937C499.744 62.6886 511.238 76.6761 511.738 82.6699C512.238 88.6638 513.737 90.6635 509.239 94.1596C504.742 97.6557 505.241 89.1634 501.743 94.1596C498.245 99.1559 513.737 124.632 513.737 124.632M459.765 124.632H513.737" stroke="black" stroke-width="5"/>
<path d="M463 637V668" stroke="black" stroke-width="3"/>
<path d="M474 637V668" stroke="black" stroke-width="3"/>
<path d="M133 669V650H162H210.5H238.5V669H210.5V650H162V669H133Z" fill="#4C7839" fill-opacity="0.42"/>
<path d="M210.5 650H238.5V669H210.5V650ZM210.5 650H162M162 650H133V669H162V650Z" stroke="black" stroke-width="2"/>
<path d="M486 637V668" stroke="black" stroke-width="3"/>
<path d="M498 637V668" stroke="black" stroke-width="3"/>
<path d="M507 637V668" stroke="black" stroke-width="3"/>
<path d="M519 637V668" stroke="black" stroke-width="3"/>
<path d="M390.5 669V492C390.5 492 392 481 403.5 481C415 481 417 492.5 417 492.5" stroke="black" stroke-width="2"/>
<path d="M417 669V492" stroke="black" stroke-width="2"/>
<path d="M391 650H416.5" stroke="black" stroke-width="2"/>
<path d="M426.5 650.5H455.5" stroke="black" stroke-width="3"/>
<path d="M426.125 648.999V668.504" stroke="black" stroke-width="3"/>
<path d="M379.5 650.5H351V668H379.5V650.5Z" stroke="black" stroke-width="3"/>
<path d="M280 636H351" stroke="black" stroke-width="3"/>
<path d="M286 637V668" stroke="black" stroke-width="3"/>
<path d="M298 637V668.5" stroke="black" stroke-width="3"/>
<path d="M309 637V668.5" stroke="black" stroke-width="3"/>
<path d="M321 637V668.5" stroke="black" stroke-width="3"/>
<path d="M333 636.5V668.5" stroke="black" stroke-width="3"/>
<path d="M344.5 636V668" stroke="black" stroke-width="3"/>
<path d="M474 513V637" stroke="black" stroke-width="3"/>
<path d="M507.5 513V637" stroke="black" stroke-width="3"/>
<path d="M298 513V637" stroke="black" stroke-width="3"/>
<path d="M280 607.5H350.5" stroke="black" stroke-width="3"/>
<path d="M279 540.5H351" stroke="black" stroke-width="3"/>
<path d="M455 608H527" stroke="black" stroke-width="3"/>
<path d="M456 541H528" stroke="black" stroke-width="3"/>
<path d="M272.5 498H357.5" stroke="black" stroke-width="3"/>
<path d="M448 498H538" stroke="black" stroke-width="3"/>
<path d="M449 476H538.5" stroke="black" stroke-width="3"/>
<path d="M358 476H272" stroke="black" stroke-width="3"/>
<path d="M272 476C272 476 280.5 437.5 313.5 437C346.5 436.5 358 476 358 476M341.5 476C341.5 476 336.5 448.5 313.5 449C290.5 449.5 288 476 288 476V497.5" stroke="black" stroke-width="3"/>
<path d="M450 476.005C450 476.005 458.5 437.505 491.5 437.005C524.5 436.505 536 476.005 536 476.005M519 476.5C519 476.5 514.5 448.505 491.5 449.005C468.5 449.505 466 476.005 466 476.005V497.505" stroke="black" stroke-width="3"/>
<path d="M341.5 476V498" stroke="black" stroke-width="3"/>
<path d="M519 475V497" stroke="black" stroke-width="3"/>
<path d="M316.5 496C321.747 496 326 491.747 326 486.5C326 481.253 321.747 477 316.5 477C311.253 477 307 481.253 307 486.5C307 491.747 311.253 496 316.5 496Z" fill="#4C7839" fill-opacity="0.42" stroke="black" stroke-width="2"/>
<path d="M493.5 496C498.747 496 503 491.747 503 486.5C503 481.253 498.747 477 493.5 477C488.253 477 484 481.253 484 486.5C484 491.747 488.253 496 493.5 496Z" fill="#4C7839" fill-opacity="0.42" stroke="black" stroke-width="2"/>
<path d="M390.5 498H417V506H390.5" stroke="black" stroke-width="2"/>
<path d="M316.5 476.5V497.5" stroke="black" stroke-width="2"/>
<path d="M493.5 477V496" stroke="black" stroke-width="2"/>
<path d="M315 674.5L309 683H321L315 674.5Z" fill="#4C7839" fill-opacity="0.42"/>
<path d="M284.5 674.5L278.5 683H290.5L284.5 674.5Z" fill="#4C7839" fill-opacity="0.42"/>
<path d="M284.5 674.5L278.5 683H290.5L284.5 674.5Z" fill="#4C7839" fill-opacity="0.42"/>
<path d="M346.5 674.5L340.5 683H352.5L346.5 674.5Z" fill="#4C7839" fill-opacity="0.42"/>
<path d="M346.5 674.5L340.5 683H352.5L346.5 674.5Z" fill="#4C7839" fill-opacity="0.42"/>
<path d="M315 674.5L309 683H321L315 674.5Z" fill="#4C7839" fill-opacity="0.42"/>
<path d="M284.5 674.5L278.5 683H290.5L284.5 674.5Z" fill="#4C7839" fill-opacity="0.42"/>
<path d="M284.5 674.5L278.5 683H290.5L284.5 674.5Z" fill="#4C7839" fill-opacity="0.42"/>
<path d="M346.5 674.5L340.5 683H352.5L346.5 674.5Z" fill="#4C7839" fill-opacity="0.42"/>
<path d="M346.5 674.5L340.5 683H352.5L346.5 674.5Z" fill="#4C7839" fill-opacity="0.42"/>
<path d="M264 683H278.5M441.5 683H290.5M364 667V791.5M278.5 683L284.5 674.5L290.5 683M278.5 683H290.5M264 683H278.5M278.5 683L284.5 674.5L290.5 683H278.5ZM309 683L315 674.5L321 683H309ZM340.5 683L346.5 674.5L352.5 683H340.5ZM309 683L315 674.5L321 683H309ZM340.5 683L346.5 674.5L352.5 683H340.5Z" stroke="black" stroke-width="3"/>
<path d="M492 674.5L486 683H498L492 674.5Z" fill="#4C7839" fill-opacity="0.42"/>
<path d="M461.5 674.5L455.5 683H467.5L461.5 674.5Z" fill="#4C7839" fill-opacity="0.42"/>
<path d="M461.5 674.5L455.5 683H467.5L461.5 674.5Z" fill="#4C7839" fill-opacity="0.42"/>
<path d="M523.5 674.5L517.5 683H529.5L523.5 674.5Z" fill="#4C7839" fill-opacity="0.42"/>
<path d="M523.5 674.5L517.5 683H529.5L523.5 674.5Z" fill="#4C7839" fill-opacity="0.42"/>
<path d="M492 674.5L486 683H498L492 674.5Z" fill="#4C7839" fill-opacity="0.42"/>
<path d="M461.5 674.5L455.5 683H467.5L461.5 674.5Z" fill="#4C7839" fill-opacity="0.42"/>
<path d="M461.5 674.5L455.5 683H467.5L461.5 674.5Z" fill="#4C7839" fill-opacity="0.42"/>
<path d="M523.5 674.5L517.5 683H529.5L523.5 674.5Z" fill="#4C7839" fill-opacity="0.42"/>
<path d="M523.5 674.5L517.5 683H529.5L523.5 674.5Z" fill="#4C7839" fill-opacity="0.42"/>
<path d="M441 683H455.5M541 683H467.5M538 671V791.5M455.5 683L461.5 674.5L467.5 683M455.5 683H467.5M486 683L492 674.5L498 683H486ZM517.5 683L523.5 674.5L529.5 683H517.5Z" stroke="black" stroke-width="3"/>
<path d="M442 668.5V792.5" stroke="black" stroke-width="2"/>
<path d="M364.5 716H442" stroke="black" stroke-width="2"/>
<path d="M364.5 750H442" stroke="black" stroke-width="2"/>
<path d="M364 782.5H442" stroke="black" stroke-width="3"/>
<path d="M264.5 669V792.5" stroke="black" stroke-width="3"/>
<path d="M355 684.5V778.5M355 793V778.5M275.5 684.5V778.5M275.5 793V778.5M264.5 778.5H275.5M355 778.5H364" stroke="black" stroke-width="3"/>
<path d="M531.5 683V779M531.5 793.5V779M452 683V779M452 793.5V779M441 779H452M531.5 779H540.5" stroke="black" stroke-width="3"/>
<path d="M461 792.5V701H521V792.5H461Z" fill="#4C7839" fill-opacity="0.42" stroke="black" stroke-width="3"/>
<path d="M461 736H521.5" stroke="black" stroke-width="3"/>
<path d="M495 782V763H509.5V782H495Z" fill="#4C7839" fill-opacity="0.42" stroke="black" stroke-width="2"/>
<path d="M473 782V763H487.5V782H473Z" fill="#4C7839" fill-opacity="0.42" stroke="black" stroke-width="2"/>
<path d="M495 727V708H509.5V727H495Z" fill="#4C7839" fill-opacity="0.42" stroke="black" stroke-width="2"/>
<path d="M473 727V708H487.5V727H473Z" fill="#4C7839" fill-opacity="0.42" stroke="black" stroke-width="2"/>
<path d="M473 755V746H487V755H473Z" fill="#4C7839" fill-opacity="0.42" stroke="black" stroke-width="2"/>
<path d="M495 755V746H509V755H495Z" fill="#4C7839" fill-opacity="0.42" stroke="black" stroke-width="2"/>
<path d="M285 792.5V701H345V792.5H285Z" fill="#4C7839" fill-opacity="0.42" stroke="black" stroke-width="3"/>
<path d="M284.5 736H345" stroke="black" stroke-width="3"/>
<path d="M296.5 727V708H311V727H296.5Z" fill="#4C7839" fill-opacity="0.42" stroke="black" stroke-width="2"/>
<path d="M319 727V708H333.5V727H319Z" fill="#4C7839" fill-opacity="0.42" stroke="black" stroke-width="2"/>
<path d="M296 755V746H310V755H296Z" fill="#4C7839" fill-opacity="0.42" stroke="black" stroke-width="2"/>
<path d="M319 783V764H333V783H319Z" fill="#4C7839" fill-opacity="0.42" stroke="black" stroke-width="2"/>
<path d="M296 782V764H310V782H296Z" fill="#4C7839" fill-opacity="0.42" stroke="black" stroke-width="2"/>
<path d="M319 755V746H333V755H319Z" fill="#4C7839" fill-opacity="0.42" stroke="black" stroke-width="2"/>
<path d="M333 513V637.5" stroke="black" stroke-width="3"/>
<path d="M47 388.5H538.5" stroke="black" stroke-width="3"/>
<path d="M140 650V387.5" stroke="black"/>
<path d="M154.5 650V416" stroke="black" stroke-width="2"/>
<path d="M209.529 641.5H164.029H161.529C161.529 641.5 161 564.5 161.5 563.5C161.5 563.5 168.962 524.5 186.028 524.5C203.094 524.5 209.028 557.5 209.528 563C210.028 568.5 209.529 641.5 209.529 641.5Z" fill="#4C7839" fill-opacity="0.42" stroke="black" stroke-width="2"/>
<path d="M219 650V416.5H154.5" stroke="black" stroke-width="2"/>
<path d="M237.5 668.5H30.5V804.5M237.5 668.5H538.5M237.5 668.5V793M237.5 804.5V793M237.5 793H538" stroke="black" stroke-width="3"/>
<path d="M162 592.5H167.5L181 578.5V565H192V578.5L203 592.5H210" stroke="black" stroke-width="2"/>
<path d="M154.5 508H219" stroke="black" stroke-width="2"/>
<path d="M154.5 496H219.5" stroke="black" stroke-width="2"/>
<path d="M220 477.5H154.5" stroke="black" stroke-width="2"/>
<path d="M154.5 443H219" stroke="black" stroke-width="2"/>
<path d="M219 426.5H155" stroke="black" stroke-width="2"/>
<path d="M38.5 668V638H123" stroke="black" stroke-width="3"/>
<path d="M71.5 404.5V638.5H81.5V404.5H71.5Z" fill="#4C7839" fill-opacity="0.42"/>
<path d="M59.5 388.5V638.5H71.5M71.5 638.5V404.5H81.5V638.5H71.5Z" stroke="black" stroke-width="2"/>
<path d="M44.5 403H139L123.668 637.291L115.755 805" stroke="black" stroke-width="4"/>
<path d="M68.5 369.5V324.5H98.5V369.5H68.5Z" fill="#4C7839" fill-opacity="0.42" stroke="black" stroke-width="2"/>
<path d="M131.5 352V337H253.5V352H131.5Z" fill="#4C7839" fill-opacity="0.42" stroke="black" stroke-width="2"/>
<path d="M107.5 337V302H148.5V337H107.5Z" fill="#4C7839" fill-opacity="0.42" stroke="black" stroke-width="2"/>
<path d="M119.003 715.928L119.002 715.937L119.002 715.946L117.167 749.946L115.413 782.44L115.413 782.446L114.059 805H31.4981L31.498 782.5L31.4981 750L31.4981 717L31.4981 684V669L37.962 669L37.9678 669L122.425 668.506L121.312 683.928L119.003 715.928Z" fill="#4C7839" fill-opacity="0.42" stroke="black" stroke-width="2"/>
<path d="M121 683H266.5" stroke="black" stroke-width="2"/>
<path d="M30.5 716H120M265 716H120M120 716L118.5 749.5" stroke="black" stroke-width="2"/>
<path d="M30.5 749.5H118.5H264" stroke="black" stroke-width="2"/>
<path d="M264.5 782H31" stroke="black" stroke-width="2"/>
<path d="M82 461H135" stroke="black" stroke-width="2"/>
<path d="M81 497H133" stroke="black" stroke-width="2"/>
<path d="M81.498 531.25H130.001" stroke="black" stroke-width="2"/>
<path d="M81.5 566.5H127.5" stroke="black" stroke-width="2"/>
<path d="M232.5 296L487.755 150L540 181" stroke="black" stroke-width="2"/>
<path d="M488.28 184L345.449 270H539.503V215L488.28 184Z" fill="#4C7839" fill-opacity="0.42" stroke="black" stroke-width="2"/>
<path d="M250 669V650.5H278V669" stroke="black" stroke-width="3"/>
<circle cx="185.5" cy="460.5" r="15.5" fill="#4C7839" fill-opacity="0.42" stroke="black" stroke-width="2"/>
<circle cx="127.5" cy="319.5" r="15.5" fill="#4C7839" fill-opacity="0.42" stroke="black" stroke-width="2"/>
<path d="M74.5 361.5V333.5H75.5H92V361.5H74.5Z" fill="#4C7839" fill-opacity="0.42" stroke="black" stroke-width="2"/>
<path d="M145 293.5C159.8 293.1 209.833 293.333 232 293.5" stroke="black" stroke-width="3"/>
<path d="M243 352V388M253.326 387.493V353.014H540" stroke="black" stroke-width="2"/>
<path d="M140 649.5V352" stroke="black" stroke-width="3"/>
<path d="M231 650V415H140" stroke="black" stroke-width="3"/>
<path d="M159 413.5V404.5H170.5V413.5" stroke="black" stroke-width="2"/>
<path d="M201 414V405H212.5V414" stroke="black" stroke-width="2"/>
<path d="M269.5 398.5H259V389.5H269.5V398.5Z" fill="#4C7839" fill-opacity="0.42"/>
<path d="M259 389V389.5M259 389.5V398.5H269.5V389.5H259ZM257 400V651" stroke="black" stroke-width="3"/>
<path d="M370.5 398.5H360V389.5H370.5V398.5Z" fill="#4C7839" fill-opacity="0.42"/>
<path d="M360 389V389.5M360 389.5V398.5H370.5V389.5H360ZM372.5 400V650.738M358 400V650.5M526.5 667.5V512M351 668.5V511.5" stroke="black" stroke-width="3"/>
<path d="M370.5 398.5H360V389.5H370.5V398.5Z" fill="#375829" fill-opacity="0.42"/>
<path d="M360 389V389.5M360 389.5V398.5H370.5V389.5H360ZM372.5 400V650.5M358 400V650M526.5 667.5V512M351 668.5V511.5" stroke="black" stroke-width="3"/>
<circle cx="185.5" cy="460.5" r="9.5" fill="#4C7839" fill-opacity="0.42" stroke="black" stroke-width="2"/>
<path d="M537 652.5H526.5V637H455.5" stroke="black" stroke-width="3"/>
<path d="M446.069 398.446H435.931V389.497H446.069V398.446Z" fill="#4C7839" fill-opacity="0.42"/>
<path d="M435.931 389V389.497M435.931 389.497V398.446H446.069V389.497H435.931ZM448 399.937V651M434 399.937V651" stroke="black" stroke-width="3"/>
<path d="M351 513H279V667.5" stroke="black" stroke-width="3"/>
<path d="M527 513H455V667" stroke="black" stroke-width="3"/>
<path d="M271.5 400V650" stroke="black" stroke-width="3"/>
<path d="M322 419C322 422.724 321.135 426.047 319.789 428.403C318.426 430.788 316.695 432 315 432C313.305 432 311.574 430.788 310.211 428.403C308.865 426.047 308 422.724 308 419C308 415.276 308.865 411.953 310.211 409.597C311.574 407.212 313.305 406 315 406C316.695 406 318.426 407.212 319.789 409.597C321.135 411.953 322 415.276 322 419Z" fill="#4C7839" fill-opacity="0.42" stroke="black" stroke-width="2"/>
<path d="M500 419C500 422.724 499.135 426.047 497.789 428.403C496.426 430.788 494.695 432 493 432C491.305 432 489.574 430.788 488.211 428.403C486.865 426.047 486 422.724 486 419C486 415.276 486.865 411.953 488.211 409.597C489.574 407.212 491.305 406 493 406C494.695 406 496.426 407.212 497.789 409.597C499.135 411.953 500 415.276 500 419Z" fill="#4C7839" fill-opacity="0.42" stroke="black" stroke-width="2"/>
<path d="M455 651V667" stroke="black" stroke-width="3"/>
<path d="M52 805L52.5 639" stroke="black" stroke-width="2"/>
<path d="M98 804V639" stroke="black" stroke-width="2"/>
<path d="M73 805.5V716V638" stroke="black" stroke-width="2"/>
<path d="M81.5 601.5H126" stroke="black" stroke-width="2"/>
<path d="M81.5 426H138" stroke="black" stroke-width="2"/>
<path d="M81.5 409.5H139" stroke="black" stroke-width="2"/>
<path d="M275.5 330.5C283.174 330.5 289.5 324.513 289.5 317C289.5 309.487 283.174 303.5 275.5 303.5C267.826 303.5 261.5 309.487 261.5 317C261.5 324.513 267.826 330.5 275.5 330.5Z" fill="#4C7839" fill-opacity="0.42" stroke="black" stroke-width="3"/>
<path d="M307.5 330.5C315.174 330.5 321.5 324.513 321.5 317C321.5 309.487 315.174 303.5 307.5 303.5C299.826 303.5 293.5 309.487 293.5 317C293.5 324.513 299.826 330.5 307.5 330.5Z" fill="#4C7839" fill-opacity="0.42" stroke="black" stroke-width="3"/>
<path d="M339.5 330.5C347.174 330.5 353.5 324.513 353.5 317C353.5 309.487 347.174 303.5 339.5 303.5C331.826 303.5 325.5 309.487 325.5 317C325.5 324.513 331.826 330.5 339.5 330.5Z" fill="#4C7839" fill-opacity="0.42" stroke="black" stroke-width="3"/>
<path d="M528.5 330.5C532.392 330.5 535.348 328.96 537.287 326.388C539.181 323.875 540 320.52 540 317C540 313.48 539.181 310.125 537.287 307.612C535.348 305.04 532.392 303.5 528.5 303.5C520.826 303.5 514.5 309.487 514.5 317C514.5 324.513 520.826 330.5 528.5 330.5Z" fill="#4C7839" fill-opacity="0.42" stroke="black" stroke-width="3"/>
<path d="M264 354V365H254" stroke="black"/>
<path d="M509 353V364.5H519.5V353" stroke="black"/>
<path d="M302 353V364.5H312.5V353" stroke="black"/>
<path d="M278 353.5V365H288.5V353.5" stroke="black"/>
<path d="M278 353.5V365H288.5V353.5" stroke="black"/>
<path d="M325 353V364.5H335.5V353" stroke="black"/>
<path d="M348 353V364.5H358.5V353" stroke="black"/>
<path d="M372 353V364.5H382.5V353" stroke="black"/>
<path d="M395 353V364.5H405.5V353" stroke="black"/>
<path d="M419 353V364.5H429.5V353" stroke="black"/>
<path d="M442 353V364.5H452.5V353" stroke="black"/>
<path d="M465 353V364.5H475.5V353" stroke="black"/>
<path d="M486 353V364.5H496.5V353" stroke="black"/>
<path d="M531 354V365.5H541.5V354" stroke="black"/>
<path d="M496.5 331.5C504.174 331.5 510.5 325.513 510.5 318C510.5 310.487 504.174 304.5 496.5 304.5C488.826 304.5 482.5 310.487 482.5 318C482.5 325.513 488.826 331.5 496.5 331.5Z" fill="#4C7839" fill-opacity="0.42" stroke="black" stroke-width="3"/>
<path d="M464.5 331.5C472.174 331.5 478.5 325.513 478.5 318C478.5 310.487 472.174 304.5 464.5 304.5C456.826 304.5 450.5 310.487 450.5 318C450.5 325.513 456.826 331.5 464.5 331.5Z" fill="#4C7839" fill-opacity="0.42" stroke="black" stroke-width="3"/>
</svg>
