<svg width="37" height="38" viewBox="0 0 37 38" fill="none" xmlns="http://www.w3.org/2000/svg">
<path d="M22.5465 20.5978L21.6006 22.388L24.3333 23.3302L23.7027 23.8955L25.5946 25.3088L28.8529 27.1932H30.009H31.0601L32.5315 28.7007L33.7928 29.3603L35.1592 30.3025L36 32.0927V33.2233H34.5285V33.9771V35.2962L33.7928 35.8615L31.7958 36.3326C31.2002 36.5838 29.9039 37.0675 29.4835 36.9921C28.958 36.8979 29.4835 36.3326 28.8529 35.8615C28.3483 35.4846 28.3624 34.9507 28.4324 34.7308L26.8559 33.9771L25.5946 33.2233L24.964 32.0927L24.1231 30.3025L22.1261 30.6794L18.4474 30.3025L16.7658 31.5273L14.979 32.4695L14.5586 33.9771H13.6126H12.1411L11.5105 33.2233V32.0927V30.3025C11.5105 30.001 11.9309 29.109 12.1411 28.7007V27.1932L10.7748 26.5337V25.3088V24.555H12.1411L11.5105 23.9897V22.9533L12.1411 21.8227V21.2573L11.5105 20.5978L9.93393 19.9383C9.51351 19.8126 8.63063 19.486 8.46246 19.1845C8.29429 18.883 8.53253 18.3679 8.67267 18.1481L7.62162 17.1117H5.2042H3.94294L2.26126 16.1695L1 15.133L2.26126 14.285L4.46847 13.4371L5.93994 12.5891L6.57057 11.6469L5.93994 9.95092L6.57057 8.72606L13.0871 9.95092V5.61679L13.6126 4.29771L13.0871 1.9422L21.6006 2.4133L27.9069 1L28.8529 1.9422L29.4835 3.3555L28.8529 4.29771V4.95725H30.4294L31.0601 5.14569L33.2673 5.61679V7.68963H30.009L27.9069 7.12431L25.5946 8.72606V9.95092L26.8559 10.6105L25.5946 13.4371L22.967 14.285L21.6006 19.5614L22.5465 20.5978Z" fill="black" stroke="black"/>
</svg>
