<svg width="33" height="51" viewBox="0 0 33 51" fill="none" xmlns="http://www.w3.org/2000/svg">
<path d="M28.3801 31.0018L29.6449 18.2069L30.0966 16.4156L30.2773 14.1125L30.0966 12.6624L29.6449 12.2359L28.3801 11.4682L29.6449 10.7858L30.2773 9.93285V9.25045L31 8.39746V7.20327L29.6449 5.92377L27.3863 5.32668V4.38838L25.9408 3.36479H23.0498H21.514L20.2492 2L17.9907 2.2559L15.9128 3.36479L10.8536 4.38838L6.24611 4.72958L2.6324 5.92377L2 7.20327L3.2648 9.93285L6.24611 10.7858L11.5763 14.1125L10.4019 18.2069L9.4081 20.9365L6.96885 27.078L5.61371 31.0018V32.0254V33.049L7.60125 34.6697L9.4081 35.5227L10.4019 37.5699L11.5763 38.3376L13.7445 37.5699H15.9128L17.9907 38.3376H19.7975H21.514H24.5857L23.7726 39.6171L25.2181 40.2142L23.7726 41.4936V44.8203L23.0498 48.3176L23.7726 49H25.2181V46.2704L26.6636 37.5699L28.3801 31.0018Z" fill="black" stroke="black" stroke-width="3"/>
</svg>
