<svg width="52" height="63" viewBox="0 0 52 63" fill="none" xmlns="http://www.w3.org/2000/svg">
<path d="M14.1702 49.9001V51.7786L18 55.6208H21.1489L26.8511 57.8408L27.4468 59.3777L27.9574 61H32.0426L32.7234 59.3777L33.234 57.8408V56.0478L34 54.5109L35.5319 52.6324L34.8511 51.7786C35.078 51.7786 35.5319 51.642 35.5319 51.0955V49.9001V49.3878L33.234 48.6194C32.4681 48.3632 32.0426 47.5948 31.0213 47.2533C30.2043 46.98 30.2269 46.5133 30.3404 46.314H28.5532C28.3546 46.001 27.8553 45.3748 27.4468 45.3748H26.3404L25.1489 44.521V43.4964V42.9841V41.5326L27.4468 42.2156H28.5532L29.1489 42.9841L30.3404 43.4964L32.0426 42.2156L32.7234 42.9841L33.234 42.2156L34.4255 42.9841H35.5319L36.2128 42.2156L35.5319 41.5326L34.4255 40.3372L34.8511 38.9711L33.234 38.0318H32.0426L31.0213 36.9219L32.0426 35.7265L34 36.2388L34.8511 35.7265L37.0638 36.9219L36.2128 38.0318H39.7021L42.4255 40.081L43.4468 41.5326L44.1277 40.5933L44.6383 41.5326H46.9362V38.0318L46.1702 36.9219L46.9362 35.7265L50 34.7019V32.9942L49.1489 32.2258L46.9362 31.7135L42.4255 32.9942L40.8085 31.2012H38.9362L40.2979 28.8958L39.7021 27.5297L40.2979 25.6512L38.9362 24.2851H37.0638L36.2128 23.0897L34 22.4067V20.5282L31.0213 17.8813L32.0426 14.7221H34L35.5319 13.6975L34 12.8437L34.8511 8.83068L34 6.52533L27.9574 8.83068L28.5532 7.63531L27.4468 7.12301L29.1489 4.64689L27.4468 3.87844H25.1489H23.7021L21.4894 4.64689V2H20.5532L8.97872 21.809H7.78723V23.0897L8.97872 24.2851L7.78723 26.4197L8.97872 25.6512L11.1064 26.4197L12.1277 27.5297V28.8958C11.3617 28.725 9.65957 28.3835 8.97872 28.3835H7.02128L5.82979 30.1766L7.02128 31.2012L6.51064 32.9942L3.70213 34.7019L2.59574 36.9219L2 41.5326L4.29787 42.2156V43.4964L14.1702 49.9001Z" fill="black" stroke="black" stroke-width="3"/>
</svg>
