<svg width="94" height="48" viewBox="0 0 94 48" fill="none" xmlns="http://www.w3.org/2000/svg">
<path d="M68.6945 39.2896L63.5738 38.61L64.2681 40.9035L63.5738 42.2626V46H62.0983L59.321 45.1506L56.0229 42.9421L49.3399 39.7992C46.9387 38.0154 41.9973 34.3799 41.4418 34.1081C40.8864 33.8363 38.0859 31.6731 36.7551 30.6255L35.4532 31.4749L33.6306 29.6911L30.0721 28.417L27.0344 26.888L25.2985 26.2085L21.0458 26.888L17.9213 26.2085L16.5326 24.9344H14.8835H10.8043H7.67982H3.6874H2.03834C2.00941 24.453 1.9689 23.3205 2.03834 22.6409C2.10777 21.9614 3.51379 21.6782 4.20813 21.6216L4.72889 19.4131V17.5444L4.20813 15.9305V14.9112L5.24963 13.1274V11.3436C4.90246 11.5418 4.20813 11.6494 4.20813 10.4942C4.06926 9.81467 4.8446 9.58816 5.24963 9.55985L8.7213 10.4942H12.193H14.8835L14.3628 12.7027H16.5326L19.4835 13.722L20.4382 12.7027V11.3436L22.8684 9.55985L23.9099 8.4556H25.2985L27.5551 9.55985L33.6306 12.7027L33.9777 13.722H38.8381L40.4871 15.9305L43.9588 17.5444L42.6569 19.4131L41.4418 20.0927V21.6216H39.706V22.6409L40.4871 24.3398L41.4418 24.9344V25.6139L40.4871 26.2085V27.4826L42.1362 28.417V29.6911L43.3513 30.6255L46.2154 27.4826L45.4827 26.4633L47.5173 26.888L49.3399 25.6139L47.5173 24.3398L46.2154 21.6216L46.8229 19.4131L52.9852 21.027L53.5927 19.4131L51.6833 20.0927V18.3089H52.9852L52.204 15.9305L54.721 14.9112L59.321 11.9382V9.55985L62.6191 7.43629L62.0983 6.58687L65.7436 4.03861L66.4379 4.71815L67.3058 3.52896L68.6945 2L73.6416 2.50965L77.2869 3.52896L81.1925 4.71815L85.0114 7.43629L87.6151 9.05019V11.9382L88.7434 13.1274V15.9305L89.2642 14.9112H90.2189L91 15.9305L89.2642 17.5444L77.2869 36.9112H75.985V38.61L71.819 39.2896H68.6945Z" fill="black" stroke="black" stroke-width="3"/>
</svg>
