<svg width="68" height="61" viewBox="0 0 68 61" fill="none" xmlns="http://www.w3.org/2000/svg">
<path d="M62.7565 23.6565L64 22.617L62.7565 21.8374L60.9799 20.6246L58.937 19.4119L54.7622 17.3328L41.1719 7.9772L40.1948 8.75684L30.957 3.81915L22.7851 3.47264L20.1203 2H5.99713L5.81948 2.95289L4.22063 2.77964L3.51003 6.59119L7.15186 6.85106L6.88539 9.36322L3.86533 11.5289L4.39828 13.4347L7.15186 11.8754L9.10602 11.1824L13.192 11.8754L30.7794 13.9544H33.3553L35.043 13.7812L35.4871 13.5213L36.553 13.7812L36.8195 14.4742L35.2206 15.4271C34.362 15.3693 32.6269 15.2018 32.5559 14.9939C32.4848 14.786 31.3419 15.5426 30.7794 15.9468H27.4928C27.0487 15.9468 24.7393 16.1201 24.4728 15.9468C24.2063 15.7736 21.6304 16.0334 21.4527 15.9468C21.3106 15.8775 20.15 15.4559 19.5874 15.2538C19.2321 15.0517 18.5037 14.6647 18.4327 14.734C18.3616 14.8033 18.107 15.3404 17.9885 15.6003V17.1596L17.3668 17.5927C17.0411 17.9392 16.3542 18.6149 16.212 18.5456C16.0699 18.4763 15.2053 17.8815 14.7908 17.5927L13.3696 19.3252L12.5702 18.9787L11.7708 20.7979L11.0602 23.0501C11.149 23.5122 11.2734 24.4362 11.0602 24.4362C10.847 24.4362 8.06972 25.2447 6.70774 25.6489V26.4286L6.44126 27.1216C5.96753 27.5258 4.98453 28.369 4.84241 28.5076C4.70029 28.6462 4.01337 29.1429 3.68768 29.3739H2V30.7599L6.97421 41.3283L8.66189 46.959L10.0831 47.2188L11.0602 50.6839L11.5931 49.8176L14.2579 49.4711L15.3238 51.5502L16.1232 53.1961H18.9656L22.2522 53.8891L24.1175 53.1961L25.361 51.5502H28.5587L29.6246 53.1961L37.3524 59H38.7736H41.4384H43.659L45.1691 53.1961L46.235 49.4711L47.9226 46.8723L48.8997 44.7933L49.788 42.541L48.8997 40.9818L46.235 38.9027L42.7708 37.3435L41.4384 36.3039L40.106 34.3116L41.4384 32.4924L45.1691 31.7128L48.8997 30.8465L53.341 29.807L58.2264 28.8541L60.8911 27.5547L64 26.5152L62.7565 25.4757V23.6565Z" fill="black" stroke="black" stroke-width="3"/>
</svg>
